<?xml version="1.0" encoding="UTF-8" standalone="no"?>
<svg
   xmlns:dc="http://purl.org/dc/elements/1.1/"
   xmlns:cc="http://creativecommons.org/ns#"
   xmlns:rdf="http://www.w3.org/1999/02/22-rdf-syntax-ns#"
   xmlns:svg="http://www.w3.org/2000/svg"
   xmlns="http://www.w3.org/2000/svg"
   xmlns:xlink="http://www.w3.org/1999/xlink"
   xmlns:sodipodi="http://sodipodi.sourceforge.net/DTD/sodipodi-0.dtd"
   xmlns:inkscape="http://www.inkscape.org/namespaces/inkscape"
   width="1447.8541"
   height="212.54236"
   id="svg2"
   version="1.1"
   inkscape:version="0.48.3.1 r9886"
   sodipodi:docname="chess-cloud-logo.svg">
  <sodipodi:namedview
     pagecolor="#ffff56"
     bordercolor="#666666"
     borderopacity="1"
     objecttolerance="10"
     gridtolerance="10"
     guidetolerance="10"
     inkscape:pageopacity="0"
     inkscape:pageshadow="2"
     inkscape:window-width="901"
     inkscape:window-height="710"
     id="namedview20"
     showgrid="false"
     inkscape:zoom="0.1767767"
     inkscape:cx="666.53916"
     inkscape:cy="366.83128"
     inkscape:window-x="207"
     inkscape:window-y="329"
     inkscape:window-maximized="0"
     inkscape:current-layer="svg2"
     fit-margin-top="2"
     fit-margin-left="2"
     fit-margin-right="2"
     fit-margin-bottom="2">
    <inkscape:grid
       type="xygrid"
       id="grid4216"
       empspacing="5"
       visible="true"
       enabled="true"
       snapvisiblegridlinesonly="true"
       originx="-68.147078px"
       originy="16.642639px" />
  </sodipodi:namedview>
  <title
     id="title4">Chess Cloud</title>
  <defs
     id="defs6">
    <linearGradient
       id="linearGradient3765">
      <stop
         style="stop-color:#aaccff;stop-opacity:0.74900401"
         offset="0"
         id="stop3767" />
      <stop
         style="stop-color:#aaccff;stop-opacity:0;"
         offset="1"
         id="stop3769" />
    </linearGradient>
    <radialGradient
       id="svg_2"
       cx="0.5"
       cy="0.5"
       r="0.5">
      <stop
         offset="0"
         stop-color="#ffffff"
         stop-opacity="0"
         id="stop9" />
      <stop
         offset="1"
         stop-color="#013b81"
         stop-opacity="0.5"
         id="stop11" />
    </radialGradient>
    <linearGradient
       inkscape:collect="always"
       xlink:href="#linearGradient3765"
       id="linearGradient3771"
       x1="231.9785"
       y1="242.21716"
       x2="251.6187"
       y2="48.586586"
       gradientUnits="userSpaceOnUse"
       gradientTransform="translate(68.147079,270.02318)" />
    <linearGradient
       inkscape:collect="always"
       xlink:href="#linearGradient3765"
       id="linearGradient4664"
       gradientUnits="userSpaceOnUse"
       x1="231.9785"
       y1="242.21716"
       x2="251.6187"
       y2="48.586586"
       gradientTransform="translate(41.475301,32.12068)" />
    <linearGradient
       inkscape:collect="always"
       xlink:href="#linearGradient3765"
       id="linearGradient4666"
       gradientUnits="userSpaceOnUse"
       x1="231.9785"
       y1="242.21716"
       x2="251.6187"
       y2="48.586586"
       gradientTransform="translate(65.147077,281.10029)" />
    <linearGradient
       inkscape:collect="always"
       xlink:href="#linearGradient3765-5"
       id="linearGradient4666-1"
       gradientUnits="userSpaceOnUse"
       x1="231.9785"
       y1="242.21716"
       x2="251.6187"
       y2="48.586586"
       gradientTransform="translate(41.475301,32.12068)" />
    <linearGradient
       id="linearGradient3765-5">
      <stop
         style="stop-color:#aaccff;stop-opacity:0.74900401"
         offset="0"
         id="stop3767-8" />
      <stop
         style="stop-color:#aaccff;stop-opacity:0;"
         offset="1"
         id="stop3769-2" />
    </linearGradient>
    <linearGradient
       inkscape:collect="always"
       xlink:href="#linearGradient3765"
       id="linearGradient3883"
       gradientUnits="userSpaceOnUse"
       gradientTransform="translate(68.147077,284.10029)"
       x1="231.9785"
       y1="242.21716"
       x2="251.6187"
       y2="48.586586" />
  </defs>
  <metadata
     id="metadata3228">image/svg+xml<rdf:RDF>
  <cc:Work
     rdf:about="">
    <dc:format>image/svg+xml</dc:format>
    <dc:type
       rdf:resource="http://purl.org/dc/dcmitype/StillImage" />
  </cc:Work>
</rdf:RDF>
</metadata>
  <g
     id="g14"
     style="fill:url(#linearGradient3771);fill-opacity:1;stroke:#003380;stroke-opacity:1"
     transform="translate(-68.147078,-270.02317)">
    <title
       id="title16">Layer 1</title>
    <g
       transform="matrix(3.3309699,0,0,2.2867527,249.81513,-1093.5666)"
       style="font-size:60.05176926px;font-style:normal;font-variant:normal;font-weight:normal;font-stretch:normal;line-height:125%;letter-spacing:0px;word-spacing:0px;fill:#003380;fill-opacity:1;stroke:none;font-family:Ubuntu;-inkscape-font-specification:Ubuntu"
       id="text3045">
      <path
         style="fill:#003380;fill-opacity:1"
         d="m 73.125,231.78125 -6.71875,0.8125 0,37.8125 6.71875,0 0,-21.5 c 0.241576,-0.0663 0.655988,-0.15047 1.1875,-0.25 0.579813,-0.0995 1.198526,-0.18363 1.875,-0.25 0.724751,-0.0995 1.4769,-0.18363 2.25,-0.25 0.773076,-0.0663 1.525213,-0.0937 2.25,-0.0937 1.787751,2e-5 3.260776,0.16831 4.46875,0.5 1.207926,0.29856 2.181451,0.77218 2.90625,1.46875 0.724739,0.69661 1.241313,1.6222 1.53125,2.75 0.338189,1.12783 0.499976,2.50155 0.5,4.09375 l 0,13.53125 6.75,0 0,-14.53125 c -3.6e-5,-1.75805 -0.235611,-3.38421 -0.71875,-4.84375 -0.483224,-1.4595 -1.323324,-2.69043 -2.53125,-3.71875 -1.159662,-1.06145 -2.737736,-1.87357 -4.71875,-2.4375 -1.981074,-0.59705 -4.473049,-0.90623 -7.46875,-0.90625 -1.401249,2e-5 -2.831724,0.1135 -4.28125,0.3125 -1.401237,0.16588 -2.743749,0.41832 -4,0.75 l 0,-13.25 z M 43.90625,235.125 c -3.285658,4e-5 -6.350934,0.39143 -9.25,1.1875 -2.899105,0.79613 -5.450697,1.94291 -7.625,3.46875 -2.174326,1.52589 -3.914168,3.4319 -5.21875,5.6875 -1.256278,2.22248 -1.875005,4.77039 -1.875,7.65625 -5e-6,2.88589 0.544929,5.46313 1.65625,7.71875 1.159629,2.22246 2.797311,4.09914 4.875,5.625 2.077667,1.52587 4.538396,2.67264 7.4375,3.46875 2.899068,0.79611 6.129001,1.21875 9.65625,1.21875 2.029333,0 3.916766,-0.0841 5.65625,-0.25 1.739419,-0.16585 3.257874,-0.3928 4.5625,-0.625 1.30455,-0.2322 2.380227,-0.4553 3.25,-0.6875 0.869689,-0.26537 1.474239,-0.4904 1.8125,-0.65625 l -1.8125,-3.96875 c -1.063036,0.36489 -2.655291,0.78561 -4.78125,1.25 -2.126033,0.4644 -4.793966,0.68751 -8.03125,0.6875 -2.802478,10e-6 -5.280275,-0.33658 -7.40625,-1 -2.0777,-0.66342 -3.81754,-1.58709 -5.21875,-2.78125 -1.40124,-1.22732 -2.462742,-2.68326 -3.1875,-4.375 -0.676467,-1.69171 -1.000012,-3.56838 -1,-5.625 -1.2e-5,-2.12292 0.383148,-4.027 1.15625,-5.71875 0.821396,-1.72487 1.970873,-3.18081 3.46875,-4.375 1.497845,-1.19412 3.311482,-2.11972 5.4375,-2.75 2.125975,-0.63022 4.529975,-0.93747 7.1875,-0.9375 1.256241,3e-5 2.479515,0.0842 3.6875,0.25 1.256238,0.13272 2.391535,0.33034 3.40625,0.5625 1.062963,0.23223 1.991054,0.45533 2.8125,0.6875 0.821369,0.23222 1.471339,0.45725 1.90625,0.65625 l 2.03125,-4 c -0.289949,-0.13265 -0.820711,-0.32835 -1.59375,-0.59375 -0.773136,-0.26534 -1.806268,-0.51585 -3.0625,-0.78125 -1.207991,-0.26534 -2.65265,-0.51969 -4.34375,-0.71875 -1.642849,-0.19899 -3.5161,-0.28121 -5.59375,-0.28125 z m 78.90625,8.75 c -2.17433,3e-5 -4.29734,0.27987 -6.375,0.84375 -2.0777,0.56393 -3.90551,1.40346 -5.5,2.53125 -1.5945,1.12784 -2.87739,2.55638 -3.84375,4.28125 -0.96636,1.69174 -1.46876,3.67997 -1.46875,5.96875 -1e-5,1.9571 0.36897,3.77896 1.09375,5.4375 0.77309,1.62539 1.92256,3.0246 3.46875,4.21875 1.54616,1.19416 3.5074,2.14716 5.875,2.84375 2.41589,0.66342 5.27685,1 8.5625,1 2.60915,0 4.93936,-0.16829 6.96875,-0.5 2.07765,-0.33171 3.5223,-0.63896 4.34375,-0.9375 L 135,265.65625 c -0.82144,0.26537 -2.07596,0.54521 -3.71875,0.84375 -1.59452,0.26537 -3.56994,0.40626 -5.9375,0.40625 -4.2037,10e-6 -7.30022,-0.70057 -9.28125,-2.09375 -1.98105,-1.39317 -3.11635,-3.40689 -3.40625,-6.09375 l 25.8125,0 c 0.0483,-0.26535 0.0625,-0.57644 0.0625,-0.875 -4e-5,-0.3317 -4e-5,-0.5822 0,-0.78125 -4e-5,-4.4449 -1.35672,-7.75011 -4.0625,-9.90625 -2.70585,-2.18926 -6.58286,-3.28122 -11.65625,-3.28125 z m 36.84375,0 c -4.252,3e-5 -7.59829,0.67126 -10.0625,2.03125 -2.46424,1.32687 -3.6875,3.14872 -3.6875,5.4375 0,1.161 0.29518,2.14142 0.875,2.9375 0.57981,0.79612 1.34613,1.46736 2.3125,2.03125 0.96635,0.56392 2.10165,1.06879 3.40625,1.5 1.3529,0.39807 2.73795,0.78946 4.1875,1.1875 2.99571,0.82929 5.16414,1.58659 6.46875,2.25 1.30456,0.66343 1.93748,1.55969 1.9375,2.6875 -2e-5,1.09464 -0.67836,1.87744 -2.03125,2.375 -1.30461,0.49757 -3.30839,0.75 -6.0625,0.75 -2.80246,0 -5.05887,-0.19569 -6.75,-0.59375 -1.69114,-0.39805 -2.91441,-0.70722 -3.6875,-0.90625 l -1.25,4 c 0.67645,0.19902 1.95934,0.47887 3.84375,0.84375 C 151.04065,270.8043 153.66604,271 157,271 c 4.78348,0 8.43911,-0.61642 11,-1.84375 2.60915,-1.22732 3.90623,-3.04918 3.90625,-5.4375 -2e-5,-1.22732 -0.24977,-2.23322 -0.78125,-3.0625 -0.53152,-0.86243 -1.29785,-1.59041 -2.3125,-2.1875 -0.96639,-0.59706 -2.1613,-1.13127 -3.5625,-1.5625 -1.40125,-0.46438 -2.9935,-0.91059 -4.78125,-1.375 -1.35292,-0.3317 -2.5024,-0.67019 -3.46875,-0.96875 -0.96637,-0.29852 -1.79231,-0.60577 -2.46875,-0.9375 -0.62815,-0.36486 -1.13052,-0.75626 -1.46875,-1.1875 -0.28991,-0.43121 -0.43751,-0.93608 -0.4375,-1.5 -1e-5,-1.09463 0.72376,-1.87742 2.125,-2.375 1.40121,-0.53071 3.02184,-0.81248 4.90625,-0.8125 2.1743,2e-5 4.04755,0.17023 5.59375,0.46875 1.54615,0.26539 2.68145,0.5159 3.40625,0.78125 l 1.21875,-3.96875 c -0.38656,-0.0995 -0.9315,-0.21104 -1.65625,-0.34375 -0.67647,-0.13265 -1.45697,-0.27547 -2.375,-0.375 -0.91806,-0.13266 -1.90577,-0.21488 -2.96875,-0.28125 -1.06301,-0.0995 -2.15576,-0.15622 -3.21875,-0.15625 z m 32.28125,0 c -4.25201,3e-5 -7.59827,0.67126 -10.0625,2.03125 -2.46423,1.32687 -3.6875,3.14872 -3.6875,5.4375 0,1.161 0.26393,2.14142 0.84375,2.9375 0.57981,0.79612 1.37739,1.46736 2.34375,2.03125 0.96636,0.56392 2.10165,1.06879 3.40625,1.5 1.35289,0.39807 2.73794,0.78946 4.1875,1.1875 2.9957,0.82929 5.16414,1.58659 6.46875,2.25 1.30456,0.66343 1.93748,1.55969 1.9375,2.6875 -2e-5,1.09464 -0.67836,1.87744 -2.03125,2.375 -1.3046,0.49757 -3.33962,0.75 -6.09375,0.75 -2.80246,0 -5.02762,-0.19569 -6.71875,-0.59375 -1.69114,-0.39805 -2.94566,-0.70722 -3.71875,-0.90625 l -1.21875,4 c 0.67645,0.19902 1.95934,0.47887 3.84375,0.84375 1.8844,0.39805 4.47854,0.59375 7.8125,0.59375 4.78349,0 8.47037,-0.61642 11.03125,-1.84375 2.60915,-1.22732 3.90623,-3.04918 3.90625,-5.4375 -2e-5,-1.22732 -0.24977,-2.23322 -0.78125,-3.0625 -0.53152,-0.86243 -1.32909,-1.59041 -2.34375,-2.1875 -0.96639,-0.59706 -2.13005,-1.13127 -3.53125,-1.5625 -1.40125,-0.46438 -2.9935,-0.91059 -4.78125,-1.375 -1.35292,-0.3317 -2.53365,-0.67019 -3.5,-0.96875 -0.96637,-0.29852 -1.76105,-0.60577 -2.4375,-0.9375 -0.62814,-0.36486 -1.13054,-0.75626 -1.46875,-1.1875 -0.28992,-0.43121 -0.43751,-0.93608 -0.4375,-1.5 -1e-5,-1.09463 0.72376,-1.87742 2.125,-2.375 1.40121,-0.53071 3.02183,-0.81248 4.90625,-0.8125 2.1743,2e-5 4.04754,0.17023 5.59375,0.46875 1.54615,0.26539 2.68145,0.5159 3.40625,0.78125 l 1.21875,-3.96875 c -0.38657,-0.0995 -0.93151,-0.21104 -1.65625,-0.34375 -0.67647,-0.13265 -1.48822,-0.27547 -2.40625,-0.375 -0.91806,-0.13266 -1.90577,-0.21488 -2.96875,-0.28125 -1.06302,-0.0995 -2.12452,-0.15622 -3.1875,-0.15625 z m -69.1875,3.9375 c 2.75411,2e-5 4.89129,0.67126 6.4375,2.03125 1.59448,1.32686 2.36078,3.03525 2.3125,5.125 l -18.6875,0 c 0.14495,-0.8956 0.44013,-1.76253 0.875,-2.625 0.48318,-0.86242 1.11608,-1.64906 1.9375,-2.3125 0.82139,-0.6634 1.8091,-1.16443 2.96875,-1.5625 1.20794,-0.4312 2.61005,-0.65623 4.15625,-0.65625 z"
         transform="matrix(0.82856055,0,0,1.2069124,53.978299,339.26343)"
         id="path3826"
         inkscape:connector-curvature="0" />
      <path
         style="fill:#003380;fill-opacity:1"
         d="m 264.25,231.78125 -6.75,0.8125 0,31.03125 c 0,2.45466 0.85429,4.27651 2.59375,5.4375 1.73944,1.16099 4.68839,1.77738 8.84375,1.84375 L 269.90625,267 c -1.06302,-0.0995 -1.96274,-0.21106 -2.6875,-0.34375 -0.72479,-0.16584 -1.31515,-0.38895 -1.75,-0.6875 -0.43487,-0.29854 -0.74425,-0.68993 -0.9375,-1.1875 -0.19324,-0.49756 -0.28126,-1.14331 -0.28125,-1.90625 l 0,-31.09375 z m 128.65625,0 -6.71875,0.8125 0,13.0625 c -0.82144,-0.36486 -2.09015,-0.72693 -3.78125,-1.125 -1.64285,-0.39803 -3.54446,-0.59373 -5.71875,-0.59375 -2.70584,2e-5 -5.12401,0.30535 -7.25,0.96875 -2.07769,0.66344 -3.83171,1.61837 -5.28125,2.8125 -1.44955,1.19418 -2.57066,2.62272 -3.34375,4.28125 -0.72478,1.65857 -1.09375,3.4785 -1.09375,5.46875 0,2.08978 0.44276,3.96454 1.3125,5.65625 0.91804,1.65855 2.20092,3.08902 3.84375,4.25 1.6428,1.16099 3.61822,2.05726 5.9375,2.6875 2.31926,0.63025 4.94464,0.9375 7.84375,0.9375 3.14065,0 5.89656,-0.17021 8.3125,-0.46875 2.41588,-0.29854 4.39129,-0.57646 5.9375,-0.875 l 0,-37.875 z m -157.75,3.34375 c -3.28566,4e-5 -6.38219,0.39143 -9.28125,1.1875 -2.8991,0.79613 -5.41945,1.94291 -7.59375,3.46875 -2.17433,1.52589 -3.91417,3.4319 -5.21875,5.6875 -1.25628,2.22248 -1.875,4.77039 -1.875,7.65625 0,2.88589 0.54494,5.46313 1.65625,7.71875 1.15964,2.22246 2.76606,4.09914 4.84375,5.625 2.07768,1.52587 4.56965,2.67264 7.46875,3.46875 2.89908,0.79611 6.129,1.21875 9.65625,1.21875 2.02933,0 3.91676,-0.0841 5.65625,-0.25 1.73941,-0.16585 3.25788,-0.3928 4.5625,-0.625 1.30455,-0.2322 2.38023,-0.4553 3.25,-0.6875 0.86968,-0.26537 1.47424,-0.4904 1.8125,-0.65625 l -1.8125,-3.96875 c -1.06304,0.36489 -2.65529,0.78561 -4.78125,1.25 -2.12604,0.4644 -4.79397,0.68751 -8.03125,0.6875 -2.80249,10e-6 -5.28029,-0.33658 -7.40625,-1 -2.0777,-0.66342 -3.81755,-1.58709 -5.21875,-2.78125 -1.40125,-1.22732 -2.46274,-2.68326 -3.1875,-4.375 -0.67646,-1.69171 -1.03125,-3.56838 -1.03125,-5.625 0,-2.12292 0.4144,-4.027 1.1875,-5.71875 0.8214,-1.72487 1.97088,-3.18081 3.46875,-4.375 1.49784,-1.19412 3.31149,-2.11972 5.4375,-2.75 2.12598,-0.63022 4.49873,-0.93747 7.15625,-0.9375 1.25624,3e-5 2.51076,0.0842 3.71875,0.25 1.25624,0.13272 2.39154,0.33034 3.40625,0.5625 1.06296,0.23223 1.99105,0.45533 2.8125,0.6875 0.82136,0.23222 1.47135,0.45725 1.90625,0.65625 l 2,-4 c -0.28995,-0.13265 -0.82071,-0.32835 -1.59375,-0.59375 -0.77314,-0.26534 -1.77501,-0.51585 -3.03125,-0.78125 -1.20799,-0.26534 -2.65265,-0.51969 -4.34375,-0.71875 -1.64285,-0.19899 -3.5161,-0.28121 -5.59375,-0.28125 z m 57.875,8.75 c -2.56089,3e-5 -4.91946,0.3366 -7.09375,1 -2.17434,0.63028 -4.06176,1.52461 -5.65625,2.71875 -1.54619,1.19418 -2.75529,2.65204 -3.625,4.34375 -0.86974,1.65857 -1.31251,3.50783 -1.3125,5.53125 -10e-6,2.05661 0.44276,3.90395 1.3125,5.5625 0.86971,1.65855 2.07881,3.0871 3.625,4.28125 1.59449,1.19415 3.48191,2.11783 5.65625,2.78125 2.17429,0.63024 4.53286,0.9375 7.09375,0.9375 2.56084,0 4.95066,-0.30726 7.125,-0.9375 2.17429,-0.66342 4.01629,-1.5871 5.5625,-2.78125 1.59446,-1.19415 2.84899,-2.6227 3.71875,-4.28125 0.86969,-1.65855 1.28121,-3.50589 1.28125,-5.5625 -4e-5,-2.02342 -0.41156,-3.87268 -1.28125,-5.53125 -0.86976,-1.69171 -2.12429,-3.14957 -3.71875,-4.34375 -1.54621,-1.19414 -3.38821,-2.08847 -5.5625,-2.71875 -2.17434,-0.6634 -4.56416,-0.99997 -7.125,-1 z m 26.75,0.65625 0,14.53125 c -10e-6,1.75807 0.24975,3.35298 0.78125,4.8125 0.5315,1.42636 1.41704,2.68853 2.625,3.75 1.20794,1.06147 2.80019,1.87167 4.78125,2.46875 1.98103,0.5639 4.4134,0.84375 7.3125,0.84375 3.33394,0 6.26868,-0.13896 8.78125,-0.4375 2.56083,-0.29854 4.61004,-0.57838 6.15625,-0.84375 l 0,-25.125 -6.75,0 0,21.84375 c -0.24161,0.0663 -0.63896,0.12113 -1.21875,0.1875 -0.53152,0.0332 -1.13607,0.0899 -1.8125,0.15625 -0.67647,0.0331 -1.41444,0.0606 -2.1875,0.0937 -0.77311,0.0332 -1.52525,0.0625 -2.25,0.0625 -3.4306,10e-6 -5.86296,-0.70248 -7.3125,-2.0625 -1.44955,-1.36001 -2.15626,-3.59874 -2.15625,-6.75 l 0,-13.53125 -6.75,0 z m -26.75,3.4375 c 3.2856,2e-5 5.89681,0.83763 7.78125,2.5625 1.93269,1.69174 2.87496,4.01846 2.875,6.9375 -4e-5,2.91906 -0.94231,5.24387 -2.875,6.96875 -1.88444,1.69173 -4.49565,2.53126 -7.78125,2.53125 -3.28565,10e-6 -5.87979,-0.83952 -7.8125,-2.53125 -1.88442,-1.72488 -2.84376,-4.04969 -2.84375,-6.96875 -10e-6,-2.91904 0.95933,-5.24576 2.84375,-6.9375 1.93271,-1.72487 4.52685,-2.56248 7.8125,-2.5625 z M 377.5625,248 c 1.83606,2e-5 3.5163,0.22505 5.0625,0.65625 1.54615,0.43125 2.74106,0.87937 3.5625,1.34375 l 0,16.375 c -0.67649,0.13269 -1.65001,0.24231 -2.90625,0.375 -1.20799,0.0996 -2.72644,0.15626 -4.5625,0.15625 -3.62389,10e-6 -6.5132,-0.81212 -8.6875,-2.4375 -2.17433,-1.65855 -3.28126,-3.98143 -3.28125,-7 -10e-6,-1.32683 0.20719,-2.589 0.59375,-3.75 0.38654,-1.16096 1.00525,-2.13946 1.875,-2.96875 0.86971,-0.86242 1.99083,-1.53558 3.34375,-2 1.4012,-0.49754 3.06725,-0.74998 5,-0.75 z"
         transform="matrix(0.82856055,0,0,1.2069124,53.978299,339.26343)"
         id="path3836"
         inkscape:connector-curvature="0" />
    </g>
  </g>
  <g
     id="g3834"
     transform="translate(-3.0000005,-3.0000034)">
    <path
       inkscape:connector-curvature="0"
       style="fill:#ececec;fill-opacity:1;fill-rule:nonzero;stroke:#ececec;stroke-width:5.58699989;stroke-miterlimit:4;stroke-opacity:1;stroke-dashoffset:0"
       stroke-miterlimit="4"
       d="m 277.76862,288.90557 c -36.55298,0.10941 -72.28988,24.54714 -83.64811,59.44721 -16.53271,-8.39106 -38.74003,1.31593 -44.10597,18.97109 -0.87906,2.67723 -1.45616,5.48399 -1.599,8.30195 -25.93874,-4.57197 -56.61583,3.9239 -70.52291,27.60644 -9.30174,15.45115 -4.780889,36.40963 8.46142,48.07791 21.47473,20.44084 56.63565,22.60006 82.38221,10.4691 8.35311,22.32709 35.45446,34.95836 57.99735,26.73958 7.1794,-2.32476 13.72059,-6.93072 18.9216,-12.06949 19.33428,9.33449 43.8111,7.67588 61.262,-4.96783 27.99149,28.13588 79.04796,26.99075 105.36796,-2.83399 3.14336,-2.14847 4.04112,-8.43268 8.62798,-7.00164 21.26109,1.47659 41.2811,-17.57083 39.57545,-39.07579 -0.6954,-22.14937 -23.57177,-39.11953 -45.03873,-34.57474 -4.42751,1.83611 -6.12354,-4.71527 -9.76061,-6.36814 -10.29413,-9.0516 -23.95836,-13.98363 -36.77718,-16.47052 -3.90681,-38.62316 -37.2861,-70.22117 -75.24225,-75.23748 -5.24552,-0.79507 -10.58244,-1.13665 -15.90121,-1.01366 z"
       id="path6438-3"
       transform="translate(-65.147078,-281.10029)" />
    <path
       inkscape:connector-curvature="0"
       style="fill:url(#linearGradient3883);fill-opacity:1;fill-rule:nonzero;stroke:#003380;stroke-width:5.58699989;stroke-miterlimit:4;stroke-opacity:1;stroke-dashoffset:0"
       stroke-miterlimit="4"
       d="m 277.08863,295.26825 c -34.28968,0.10255 -67.81381,23.00757 -78.46875,55.71875 -15.50904,-7.86477 -36.34131,1.2334 -41.375,17.78125 -0.82463,2.50931 -1.366,5.14003 -1.5,7.78126 -24.33266,-4.28523 -53.11027,3.6778 -66.156244,25.875 -8.72579,14.48206 -4.48487,34.12604 7.937507,45.0625 20.145037,19.15882 53.128857,21.18262 77.281237,9.8125 7.8359,20.92676 33.25918,32.76581 54.40625,25.0625 6.73486,-2.17895 12.87103,-6.49603 17.75,-11.3125 18.13714,8.74903 41.09839,7.19446 57.46876,-4.65625 26.2583,26.37122 74.15344,25.29792 98.84375,-2.65625 2.94873,-2.01373 3.7909,-7.9038 8.09375,-6.5625 19.94464,1.38398 38.72504,-16.46881 37.125,-36.625 -0.65234,-20.76019 -22.11224,-36.66601 -42.25,-32.40625 -4.15338,1.72095 -5.74438,-4.41955 -9.15625,-5.96875 -9.65674,-8.48388 -22.47491,-13.10658 -34.5,-15.43751 -3.66491,-36.20075 -34.97741,-65.81697 -70.58337,-70.51866 -4.92073,-0.74521 -9.9272,-1.06535 -14.91664,-0.95009 z"
       id="path6438"
       transform="translate(-65.147078,-281.10029)" />
    <g
       transform="translate(68.328223,-266.97961)"
       id="g3076">
      <rect
         style="fill:#ececec;fill-opacity:1;fill-rule:evenodd;stroke:#ececec;stroke-width:6.99999905;stroke-linecap:round;stroke-linejoin:round;stroke-miterlimit:4;stroke-opacity:1;stroke-dasharray:none"
         id="rect3074"
         width="134"
         height="134"
         x="27.838301"
         y="279.0498"
         rx="5.135848"
         ry="5.1358485" />
      <g
         id="g4487"
         transform="translate(-110.3011,19.020075)"
         style="fill:none">
        <g
           id="g4579"
           transform="matrix(0.8929367,0,0,0.8929367,34.322024,-123.95048)">
          <g
             transform="matrix(0.88229551,0,0,0.88229551,-22.039241,28.125495)"
             id="g4542">
            <g
               id="g4626"
               transform="translate(-26.631683,-323.61529)">
              <g
                 transform="matrix(1.0379944,0,0,1.0379944,-46.088634,-92.817286)"
                 id="g4622">
                <rect
                   rx="5.6079364"
                   ry="5.6079364"
                   y="842.45624"
                   x="223.5062"
                   height="159"
                   width="159"
                   id="rect4204"
                   style="fill:#ffffff;fill-opacity:1;stroke:#003380;stroke-width:6.11420822;stroke-linejoin:round;stroke-miterlimit:4;stroke-opacity:1;stroke-dasharray:none" />
                <rect
                   rx="5.6079364"
                   ry="5.6079364"
                   y="842.45624"
                   x="223.5062"
                   height="159"
                   width="159"
                   id="rect4204-0"
                   style="fill:none;stroke:#ffffff;stroke-width:1.83426249;stroke-linejoin:round;stroke-miterlimit:4;stroke-opacity:1;stroke-dasharray:none" />
              </g>
              <g
                 transform="translate(-1.5698965,449.16814)"
                 id="g4435">
                <rect
                   style="fill:#003380;fill-opacity:1;stroke:none"
                   id="rect4206"
                   width="20"
                   height="20"
                   x="190"
                   y="335"
                   ry="0" />
                <rect
                   style="fill:#003380;fill-opacity:1;stroke:none"
                   id="rect4206-5"
                   width="20"
                   height="20"
                   x="210"
                   y="355"
                   ry="0" />
                <rect
                   style="fill:#003380;fill-opacity:1;stroke:none"
                   id="rect4206-53"
                   width="20"
                   height="20"
                   x="190"
                   y="375"
                   ry="0" />
                <rect
                   style="fill:#003380;fill-opacity:1;stroke:none"
                   id="rect4206-8"
                   width="20"
                   height="20"
                   x="230"
                   y="335"
                   ry="0" />
                <rect
                   style="fill:#003380;fill-opacity:1;stroke:none"
                   id="rect4206-1"
                   width="20"
                   height="20"
                   x="230"
                   y="375"
                   ry="0" />
                <rect
                   style="fill:#003380;fill-opacity:1;stroke:none"
                   id="rect4206-4"
                   width="20"
                   height="20"
                   x="250"
                   y="355"
                   ry="0" />
                <rect
                   style="fill:#003380;fill-opacity:1;stroke:none"
                   id="rect4206-6"
                   width="20"
                   height="20"
                   x="270"
                   y="335"
                   ry="0" />
                <rect
                   style="fill:#003380;fill-opacity:1;stroke:none"
                   id="rect4206-5-1"
                   width="20"
                   height="20"
                   x="290"
                   y="355"
                   ry="0" />
                <rect
                   style="fill:#003380;fill-opacity:1;stroke:none"
                   id="rect4206-53-1"
                   width="20"
                   height="20"
                   x="270"
                   y="375"
                   ry="0" />
                <rect
                   style="fill:#003380;fill-opacity:1;stroke:none"
                   id="rect4206-8-6"
                   width="20"
                   height="20"
                   x="310"
                   y="335"
                   ry="0" />
                <rect
                   style="fill:#003380;fill-opacity:1;stroke:none"
                   id="rect4206-1-4"
                   width="20"
                   height="20"
                   x="310"
                   y="375"
                   ry="0" />
                <rect
                   style="fill:#003380;fill-opacity:1;stroke:none"
                   id="rect4206-4-9"
                   width="20"
                   height="20"
                   x="330"
                   y="355"
                   ry="0" />
                <rect
                   style="fill:#003380;fill-opacity:1;stroke:none"
                   id="rect4206-9"
                   width="20"
                   height="20"
                   x="210"
                   y="395"
                   ry="0" />
                <rect
                   style="fill:#003380;fill-opacity:1;stroke:none"
                   id="rect4206-5-9"
                   width="20"
                   height="20"
                   x="230"
                   y="415"
                   ry="0" />
                <rect
                   style="fill:#003380;fill-opacity:1;stroke:none"
                   id="rect4206-53-0"
                   width="20"
                   height="20"
                   x="210"
                   y="435"
                   ry="0" />
                <rect
                   style="fill:#003380;fill-opacity:1;stroke:none"
                   id="rect4206-8-8"
                   width="20"
                   height="20"
                   x="250"
                   y="395"
                   ry="0" />
                <rect
                   style="fill:#003380;fill-opacity:1;stroke:none"
                   id="rect4206-1-9"
                   width="20"
                   height="20"
                   x="250"
                   y="435"
                   ry="0" />
                <rect
                   style="fill:#003380;fill-opacity:1;stroke:none"
                   id="rect4206-4-8"
                   width="20"
                   height="20"
                   x="270"
                   y="415"
                   ry="0" />
                <rect
                   style="fill:#003380;fill-opacity:1;stroke:none"
                   id="rect4206-6-8"
                   width="20"
                   height="20"
                   x="290"
                   y="395"
                   ry="0" />
                <rect
                   style="fill:#003380;fill-opacity:1;stroke:none"
                   id="rect4206-5-1-5"
                   width="20"
                   height="20"
                   x="310"
                   y="415"
                   ry="0" />
                <rect
                   style="fill:#003380;fill-opacity:1;stroke:none"
                   id="rect4206-53-1-0"
                   width="20"
                   height="20"
                   x="290"
                   y="435"
                   ry="0" />
                <rect
                   style="fill:#003380;fill-opacity:1;stroke:none"
                   id="rect4206-8-6-3"
                   width="20"
                   height="20"
                   x="330"
                   y="395"
                   ry="0" />
                <rect
                   style="fill:#003380;fill-opacity:1;stroke:none"
                   id="rect4206-1-4-9"
                   width="20"
                   height="20"
                   x="330"
                   y="435"
                   ry="0" />
                <rect
                   style="fill:#003380;fill-opacity:1;stroke:none"
                   id="rect4206-4-9-4"
                   width="20"
                   height="20"
                   x="190"
                   y="415"
                   ry="0" />
                <rect
                   style="fill:#003380;fill-opacity:1;stroke:none"
                   id="rect4206-98"
                   width="20"
                   height="20"
                   x="190"
                   y="455"
                   ry="0" />
                <rect
                   style="fill:#003380;fill-opacity:1;stroke:none"
                   id="rect4206-5-94"
                   width="20"
                   height="20"
                   x="210"
                   y="475"
                   ry="0" />
                <rect
                   style="fill:#003380;fill-opacity:1;stroke:none"
                   id="rect4206-8-3"
                   width="20"
                   height="20"
                   x="230"
                   y="455"
                   ry="0" />
                <rect
                   style="fill:#003380;fill-opacity:1;stroke:none"
                   id="rect4206-4-2"
                   width="20"
                   height="20"
                   x="250"
                   y="475"
                   ry="0" />
                <rect
                   style="fill:#003380;fill-opacity:1;stroke:none"
                   id="rect4206-6-1"
                   width="20"
                   height="20"
                   x="270"
                   y="455"
                   ry="0" />
                <rect
                   style="fill:#003380;fill-opacity:1;stroke:none"
                   id="rect4206-5-1-1"
                   width="20"
                   height="20"
                   x="290"
                   y="475"
                   ry="0" />
                <rect
                   style="fill:#003380;fill-opacity:1;stroke:none"
                   id="rect4206-8-6-6"
                   width="20"
                   height="20"
                   x="310"
                   y="455"
                   ry="0" />
                <rect
                   style="fill:#003380;fill-opacity:1;stroke:none"
                   id="rect4206-4-9-7"
                   width="20"
                   height="20"
                   x="330"
                   y="475"
                   ry="0" />
              </g>
            </g>
          </g>
        </g>
      </g>
    </g>
    <g
       transform="translate(58.458018,-175.81367)"
       id="g4200">
      <path
         inkscape:connector-curvature="0"
         sodipodi:nodetypes="ccssscccccsc"
         id="path4618-3"
         d="m 228.31581,181.83406 c 0.37763,26.05366 -0.95327,16.21453 15.48785,4.18723 -2.53742,16.99537 -0.81523,17.55532 3.57682,24.82778 2.40365,3.9801 4.52208,16.51223 6.02637,19.27456 9.11383,16.73856 30.04495,38.59042 30.00863,45.71395 -0.0453,9.01795 -10.77042,17.08976 -20.58108,7.55405 9.17839,13.43579 -18.53217,-0.0618 -30.14462,-8.34819 -15.37189,9.46257 -36.84713,-0.89225 -37.24639,-16.09674 -6.99485,34.3917 58.3258,40.36485 61.81475,84.97331 -48.68277,11.11309 -75.79806,-25.09455 -105.47137,2.90475 -15.16895,-43.98166 -16.56882,-117.49895 53.9491,-145.06288 9.58448,-3.74636 13.61085,-13.38306 22.57994,-19.92782 z"
         style="fill:#d5fff6;fill-opacity:1;fill-rule:evenodd;stroke:none" />
      <path
         inkscape:connector-curvature="0"
         sodipodi:nodetypes="ccssscccccsccssc"
         id="path4618"
         d="m 227.87036,184.29541 c 0.36636,25.27632 -0.92483,15.73076 15.02574,4.0623 -2.46171,16.48829 -0.79091,17.03154 3.47011,24.08701 2.33193,3.86136 4.38715,16.01957 5.84656,18.69948 8.84191,16.23914 29.14852,37.43903 29.11329,44.35002 -0.044,8.74888 -10.44908,16.57987 -19.96703,7.32867 8.90454,13.03491 -17.97923,-0.0599 -29.24521,-8.09911 -14.91325,9.18024 -35.74775,-0.86563 -36.1351,-15.61648 -6.78614,33.36557 56.58558,39.16051 59.97043,82.43802 -47.23025,10.78151 -73.53652,-24.34582 -102.32449,2.81809 -14.71637,-42.66942 -16.07447,-113.99322 52.33945,-140.73476 9.29852,-3.63457 13.20476,-12.98375 21.90625,-19.33324 z m 0.28541,47.06762 c 1.54599,2.19371 4.79765,5.77461 7.65086,5.25028 2.63766,-0.48481 3.69893,-1.37887 3.82063,-4.50276 0.10253,-2.63014 -9.21717,-2.54529 -11.47149,-0.74752 z"
         style="fill:#003380;fill-opacity:1;fill-rule:evenodd;stroke:none" />
    </g>
  </g>
</svg>
