<?xml version="1.0" encoding="UTF-8" standalone="no"?>
<svg
   xmlns:dc="http://purl.org/dc/elements/1.1/"
   xmlns:cc="http://creativecommons.org/ns#"
   xmlns:rdf="http://www.w3.org/1999/02/22-rdf-syntax-ns#"
   xmlns:svg="http://www.w3.org/2000/svg"
   xmlns="http://www.w3.org/2000/svg"
   xmlns:xlink="http://www.w3.org/1999/xlink"
   xmlns:sodipodi="http://sodipodi.sourceforge.net/DTD/sodipodi-0.dtd"
   xmlns:inkscape="http://www.inkscape.org/namespaces/inkscape"
   width="403.23663"
   height="218.54236"
   id="svg2"
   version="1.1"
   inkscape:version="0.48.4 r9939"
   sodipodi:docname="chess-cloud.svg">
  <sodipodi:namedview
     pagecolor="#ffff56"
     bordercolor="#666666"
     borderopacity="1"
     objecttolerance="10"
     gridtolerance="10"
     guidetolerance="10"
     inkscape:pageopacity="0"
     inkscape:pageshadow="2"
     inkscape:window-width="901"
     inkscape:window-height="710"
     id="namedview20"
     showgrid="false"
     inkscape:zoom="1"
     inkscape:cx="192.95858"
     inkscape:cy="32.371291"
     inkscape:window-x="207"
     inkscape:window-y="329"
     inkscape:window-maximized="0"
     inkscape:current-layer="g14"
     fit-margin-top="5"
     fit-margin-left="5"
     fit-margin-right="5"
     fit-margin-bottom="5">
    <inkscape:grid
       type="xygrid"
       id="grid4216"
       empspacing="5"
       visible="true"
       enabled="true"
       snapvisiblegridlinesonly="true"
       originx="-65.147078px"
       originy="19.642641px" />
  </sodipodi:namedview>
  <title
     id="title4">Chess Cloud</title>
  <defs
     id="defs6">
    <linearGradient
       inkscape:collect="always"
       id="linearGradient3856">
      <stop
         style="stop-color:#003380;stop-opacity:1;"
         offset="0"
         id="stop3858" />
      <stop
         style="stop-color:#003380;stop-opacity:0;"
         offset="1"
         id="stop3860" />
    </linearGradient>
    <linearGradient
       inkscape:collect="always"
       id="linearGradient3848">
      <stop
         style="stop-color:#003380;stop-opacity:1;"
         offset="0"
         id="stop3850" />
      <stop
         style="stop-color:#003380;stop-opacity:0;"
         offset="1"
         id="stop3852" />
    </linearGradient>
    <linearGradient
       id="linearGradient3765">
      <stop
         style="stop-color:#aaccff;stop-opacity:0.74900401"
         offset="0"
         id="stop3767" />
      <stop
         style="stop-color:#aaccff;stop-opacity:0;"
         offset="1"
         id="stop3769" />
    </linearGradient>
    <radialGradient
       id="svg_2"
       cx="0.5"
       cy="0.5"
       r="0.5">
      <stop
         offset="0"
         stop-color="#ffffff"
         stop-opacity="0"
         id="stop9" />
      <stop
         offset="1"
         stop-color="#013b81"
         stop-opacity="0.5"
         id="stop11" />
    </radialGradient>
    <linearGradient
       inkscape:collect="always"
       xlink:href="#linearGradient3765"
       id="linearGradient3771"
       x1="231.9785"
       y1="242.21716"
       x2="251.6187"
       y2="48.586586"
       gradientUnits="userSpaceOnUse"
       gradientTransform="translate(65.147078,281.10029)" />
    <linearGradient
       inkscape:collect="always"
       xlink:href="#linearGradient3765"
       id="linearGradient4664"
       gradientUnits="userSpaceOnUse"
       x1="231.9785"
       y1="242.21716"
       x2="251.6187"
       y2="48.586586"
       gradientTransform="translate(41.475301,32.12068)" />
    <linearGradient
       inkscape:collect="always"
       xlink:href="#linearGradient3765"
       id="linearGradient4666"
       gradientUnits="userSpaceOnUse"
       x1="231.9785"
       y1="242.21716"
       x2="251.6187"
       y2="48.586586"
       gradientTransform="translate(65.147077,281.10029)" />
    <linearGradient
       inkscape:collect="always"
       xlink:href="#linearGradient3765-5"
       id="linearGradient4666-1"
       gradientUnits="userSpaceOnUse"
       x1="231.9785"
       y1="242.21716"
       x2="251.6187"
       y2="48.586586"
       gradientTransform="translate(41.475301,32.12068)" />
    <linearGradient
       id="linearGradient3765-5">
      <stop
         style="stop-color:#aaccff;stop-opacity:0.74900401"
         offset="0"
         id="stop3767-8" />
      <stop
         style="stop-color:#aaccff;stop-opacity:0;"
         offset="1"
         id="stop3769-2" />
    </linearGradient>
    <linearGradient
       inkscape:collect="always"
       xlink:href="#linearGradient3848"
       id="linearGradient3854"
       x1="19.9375"
       y1="251.46875"
       x2="656.1875"
       y2="257.46875"
       gradientUnits="userSpaceOnUse"
       gradientTransform="translate(4.9712445e-7,3.396845e-6)" />
    <linearGradient
       inkscape:collect="always"
       xlink:href="#linearGradient3856"
       id="linearGradient3862"
       x1="211.1875"
       y1="251.46875"
       x2="752.90625"
       y2="257.46875"
       gradientUnits="userSpaceOnUse"
       gradientTransform="translate(4.9712445e-7,3.396845e-6)" />
  </defs>
  <metadata
     id="metadata3228">image/svg+xml<rdf:RDF>
  <cc:Work
     rdf:about="">
    <dc:format>image/svg+xml</dc:format>
    <dc:type
       rdf:resource="http://purl.org/dc/dcmitype/StillImage" />
  </cc:Work>
</rdf:RDF>
</metadata>
  <g
     id="g14"
     style="fill:url(#linearGradient3771);fill-opacity:1;stroke:#003380;stroke-opacity:1"
     transform="translate(-65.147078,-281.10029)">
    <title
       id="title16">Layer 1</title>
    <path
       id="path6438-3"
       d="m 277.76862,288.90557 c -36.55298,0.10941 -72.28988,24.54714 -83.64811,59.44721 -16.53271,-8.39106 -38.74003,1.31593 -44.10597,18.97109 -0.87906,2.67723 -1.45616,5.48399 -1.599,8.30195 -25.93874,-4.57197 -56.61583,3.9239 -70.52291,27.60644 -9.30174,15.45115 -4.780889,36.40963 8.46142,48.07791 21.47473,20.44084 56.63565,22.60006 82.38221,10.4691 8.35311,22.32709 35.45446,34.95836 57.99735,26.73958 7.1794,-2.32476 13.72059,-6.93072 18.9216,-12.06949 19.33428,9.33449 43.8111,7.67588 61.262,-4.96783 27.99149,28.13588 79.04796,26.99075 105.36796,-2.83399 3.14336,-2.14847 4.04112,-8.43268 8.62798,-7.00164 21.26109,1.47659 41.2811,-17.57083 39.57545,-39.07579 -0.6954,-22.14937 -23.57177,-39.11953 -45.03873,-34.57474 -4.42751,1.83611 -6.12354,-4.71527 -9.76061,-6.36814 -10.29413,-9.0516 -23.95836,-13.98363 -36.77718,-16.47052 -3.90681,-38.62316 -37.2861,-70.22117 -75.24225,-75.23748 -5.24552,-0.79507 -10.58244,-1.13665 -15.90121,-1.01366 z"
       stroke-miterlimit="4"
       style="fill:#ececec;fill-opacity:1;fill-rule:nonzero;stroke:#ececec;stroke-width:5.58699989;stroke-miterlimit:4;stroke-opacity:1;stroke-dashoffset:0"
       inkscape:connector-curvature="0" />
    <path
       id="path6438"
       d="m 277.08863,295.26825 c -34.28968,0.10255 -67.81381,23.00757 -78.46875,55.71875 -15.50904,-7.86477 -36.34131,1.2334 -41.375,17.78125 -0.82463,2.50931 -1.366,5.14003 -1.5,7.78126 -24.33266,-4.28523 -53.11027,3.6778 -66.156244,25.875 -8.72579,14.48206 -4.48487,34.12604 7.937507,45.0625 20.145037,19.15882 53.128857,21.18262 77.281237,9.8125 7.8359,20.92676 33.25918,32.76581 54.40625,25.0625 6.73486,-2.17895 12.87103,-6.49603 17.75,-11.3125 18.13714,8.74903 41.09839,7.19446 57.46876,-4.65625 26.2583,26.37122 74.15344,25.29792 98.84375,-2.65625 2.94873,-2.01373 3.7909,-7.9038 8.09375,-6.5625 19.94464,1.38398 38.72504,-16.46881 37.125,-36.625 -0.65234,-20.76019 -22.11224,-36.66601 -42.25,-32.40625 -4.15338,1.72095 -5.74438,-4.41955 -9.15625,-5.96875 -9.65674,-8.48388 -22.47491,-13.10658 -34.5,-15.43751 -3.66491,-36.20075 -34.97741,-65.81697 -70.58337,-70.51866 -4.92073,-0.74521 -9.9272,-1.06535 -14.91664,-0.95009 z"
       stroke-miterlimit="4"
       style="fill:url(#linearGradient4666);fill-opacity:1;fill-rule:nonzero;stroke:#003380;stroke-width:5.58699989;stroke-miterlimit:4;stroke-opacity:1;stroke-dashoffset:0"
       inkscape:connector-curvature="0" />
  </g>
  <g
     id="g3076"
     transform="translate(68.328223,-266.97961)">
    <rect
       ry="5.1358485"
       rx="5.135848"
       y="279.0498"
       x="27.838301"
       height="134"
       width="134"
       id="rect3074"
       style="fill:#ececec;fill-opacity:1;fill-rule:evenodd;stroke:#ececec;stroke-width:6.99999905;stroke-linecap:round;stroke-linejoin:round;stroke-miterlimit:4;stroke-opacity:1;stroke-dasharray:none" />
    <g
       style="fill:none"
       transform="translate(-110.3011,19.020075)"
       id="g4487">
      <g
         transform="matrix(0.8929367,0,0,0.8929367,34.322024,-123.95048)"
         id="g4579">
        <g
           id="g4542"
           transform="matrix(0.88229551,0,0,0.88229551,-22.039241,28.125495)">
          <g
             transform="translate(-26.631683,-323.61529)"
             id="g4626">
            <g
               id="g4622"
               transform="matrix(1.0379944,0,0,1.0379944,-46.088634,-92.817286)">
              <rect
                 style="fill:#ffffff;fill-opacity:1;stroke:#003380;stroke-width:6.11420822;stroke-linejoin:round;stroke-miterlimit:4;stroke-opacity:1;stroke-dasharray:none"
                 id="rect4204"
                 width="159"
                 height="159"
                 x="223.5062"
                 y="842.45624"
                 ry="5.6079364"
                 rx="5.6079364" />
              <rect
                 style="fill:none;stroke:#ffffff;stroke-width:1.83426249;stroke-linejoin:round;stroke-miterlimit:4;stroke-opacity:1;stroke-dasharray:none"
                 id="rect4204-0"
                 width="159"
                 height="159"
                 x="223.5062"
                 y="842.45624"
                 ry="5.6079364"
                 rx="5.6079364" />
            </g>
            <g
               id="g4435"
               transform="translate(-1.5698965,449.16814)">
              <rect
                 ry="0"
                 y="335"
                 x="190"
                 height="20"
                 width="20"
                 id="rect4206"
                 style="fill:#003380;fill-opacity:1;stroke:none" />
              <rect
                 ry="0"
                 y="355"
                 x="210"
                 height="20"
                 width="20"
                 id="rect4206-5"
                 style="fill:#003380;fill-opacity:1;stroke:none" />
              <rect
                 ry="0"
                 y="375"
                 x="190"
                 height="20"
                 width="20"
                 id="rect4206-53"
                 style="fill:#003380;fill-opacity:1;stroke:none" />
              <rect
                 ry="0"
                 y="335"
                 x="230"
                 height="20"
                 width="20"
                 id="rect4206-8"
                 style="fill:#003380;fill-opacity:1;stroke:none" />
              <rect
                 ry="0"
                 y="375"
                 x="230"
                 height="20"
                 width="20"
                 id="rect4206-1"
                 style="fill:#003380;fill-opacity:1;stroke:none" />
              <rect
                 ry="0"
                 y="355"
                 x="250"
                 height="20"
                 width="20"
                 id="rect4206-4"
                 style="fill:#003380;fill-opacity:1;stroke:none" />
              <rect
                 ry="0"
                 y="335"
                 x="270"
                 height="20"
                 width="20"
                 id="rect4206-6"
                 style="fill:#003380;fill-opacity:1;stroke:none" />
              <rect
                 ry="0"
                 y="355"
                 x="290"
                 height="20"
                 width="20"
                 id="rect4206-5-1"
                 style="fill:#003380;fill-opacity:1;stroke:none" />
              <rect
                 ry="0"
                 y="375"
                 x="270"
                 height="20"
                 width="20"
                 id="rect4206-53-1"
                 style="fill:#003380;fill-opacity:1;stroke:none" />
              <rect
                 ry="0"
                 y="335"
                 x="310"
                 height="20"
                 width="20"
                 id="rect4206-8-6"
                 style="fill:#003380;fill-opacity:1;stroke:none" />
              <rect
                 ry="0"
                 y="375"
                 x="310"
                 height="20"
                 width="20"
                 id="rect4206-1-4"
                 style="fill:#003380;fill-opacity:1;stroke:none" />
              <rect
                 ry="0"
                 y="355"
                 x="330"
                 height="20"
                 width="20"
                 id="rect4206-4-9"
                 style="fill:#003380;fill-opacity:1;stroke:none" />
              <rect
                 ry="0"
                 y="395"
                 x="210"
                 height="20"
                 width="20"
                 id="rect4206-9"
                 style="fill:#003380;fill-opacity:1;stroke:none" />
              <rect
                 ry="0"
                 y="415"
                 x="230"
                 height="20"
                 width="20"
                 id="rect4206-5-9"
                 style="fill:#003380;fill-opacity:1;stroke:none" />
              <rect
                 ry="0"
                 y="435"
                 x="210"
                 height="20"
                 width="20"
                 id="rect4206-53-0"
                 style="fill:#003380;fill-opacity:1;stroke:none" />
              <rect
                 ry="0"
                 y="395"
                 x="250"
                 height="20"
                 width="20"
                 id="rect4206-8-8"
                 style="fill:#003380;fill-opacity:1;stroke:none" />
              <rect
                 ry="0"
                 y="435"
                 x="250"
                 height="20"
                 width="20"
                 id="rect4206-1-9"
                 style="fill:#003380;fill-opacity:1;stroke:none" />
              <rect
                 ry="0"
                 y="415"
                 x="270"
                 height="20"
                 width="20"
                 id="rect4206-4-8"
                 style="fill:#003380;fill-opacity:1;stroke:none" />
              <rect
                 ry="0"
                 y="395"
                 x="290"
                 height="20"
                 width="20"
                 id="rect4206-6-8"
                 style="fill:#003380;fill-opacity:1;stroke:none" />
              <rect
                 ry="0"
                 y="415"
                 x="310"
                 height="20"
                 width="20"
                 id="rect4206-5-1-5"
                 style="fill:#003380;fill-opacity:1;stroke:none" />
              <rect
                 ry="0"
                 y="435"
                 x="290"
                 height="20"
                 width="20"
                 id="rect4206-53-1-0"
                 style="fill:#003380;fill-opacity:1;stroke:none" />
              <rect
                 ry="0"
                 y="395"
                 x="330"
                 height="20"
                 width="20"
                 id="rect4206-8-6-3"
                 style="fill:#003380;fill-opacity:1;stroke:none" />
              <rect
                 ry="0"
                 y="435"
                 x="330"
                 height="20"
                 width="20"
                 id="rect4206-1-4-9"
                 style="fill:#003380;fill-opacity:1;stroke:none" />
              <rect
                 ry="0"
                 y="415"
                 x="190"
                 height="20"
                 width="20"
                 id="rect4206-4-9-4"
                 style="fill:#003380;fill-opacity:1;stroke:none" />
              <rect
                 ry="0"
                 y="455"
                 x="190"
                 height="20"
                 width="20"
                 id="rect4206-98"
                 style="fill:#003380;fill-opacity:1;stroke:none" />
              <rect
                 ry="0"
                 y="475"
                 x="210"
                 height="20"
                 width="20"
                 id="rect4206-5-94"
                 style="fill:#003380;fill-opacity:1;stroke:none" />
              <rect
                 ry="0"
                 y="455"
                 x="230"
                 height="20"
                 width="20"
                 id="rect4206-8-3"
                 style="fill:#003380;fill-opacity:1;stroke:none" />
              <rect
                 ry="0"
                 y="475"
                 x="250"
                 height="20"
                 width="20"
                 id="rect4206-4-2"
                 style="fill:#003380;fill-opacity:1;stroke:none" />
              <rect
                 ry="0"
                 y="455"
                 x="270"
                 height="20"
                 width="20"
                 id="rect4206-6-1"
                 style="fill:#003380;fill-opacity:1;stroke:none" />
              <rect
                 ry="0"
                 y="475"
                 x="290"
                 height="20"
                 width="20"
                 id="rect4206-5-1-1"
                 style="fill:#003380;fill-opacity:1;stroke:none" />
              <rect
                 ry="0"
                 y="455"
                 x="310"
                 height="20"
                 width="20"
                 id="rect4206-8-6-6"
                 style="fill:#003380;fill-opacity:1;stroke:none" />
              <rect
                 ry="0"
                 y="475"
                 x="330"
                 height="20"
                 width="20"
                 id="rect4206-4-9-7"
                 style="fill:#003380;fill-opacity:1;stroke:none" />
            </g>
          </g>
        </g>
      </g>
    </g>
  </g>
  <g
     id="g4200"
     transform="translate(58.458018,-175.81367)">
    <path
       style="fill:#d5fff6;fill-opacity:1;fill-rule:evenodd;stroke:none"
       d="m 228.31581,181.83406 c 0.37763,26.05366 -0.95327,16.21453 15.48785,4.18723 -2.53742,16.99537 -0.81523,17.55532 3.57682,24.82778 2.40365,3.9801 4.52208,16.51223 6.02637,19.27456 9.11383,16.73856 30.04495,38.59042 30.00863,45.71395 -0.0453,9.01795 -10.77042,17.08976 -20.58108,7.55405 9.17839,13.43579 -18.53217,-0.0618 -30.14462,-8.34819 -15.37189,9.46257 -36.84713,-0.89225 -37.24639,-16.09674 -6.99485,34.3917 58.3258,40.36485 61.81475,84.97331 -48.68277,11.11309 -75.79806,-25.09455 -105.47137,2.90475 -15.16895,-43.98166 -16.56882,-117.49895 53.9491,-145.06288 9.58448,-3.74636 13.61085,-13.38306 22.57994,-19.92782 z"
       id="path4618-3"
       sodipodi:nodetypes="ccssscccccsc"
       inkscape:connector-curvature="0" />
    <path
       style="fill:#003380;fill-opacity:1;fill-rule:evenodd;stroke:none"
       d="m 227.87036,184.29541 c 0.36636,25.27632 -0.92483,15.73076 15.02574,4.0623 -2.46171,16.48829 -0.79091,17.03154 3.47011,24.08701 2.33193,3.86136 4.38715,16.01957 5.84656,18.69948 8.84191,16.23914 29.14852,37.43903 29.11329,44.35002 -0.044,8.74888 -10.44908,16.57987 -19.96703,7.32867 8.90454,13.03491 -17.97923,-0.0599 -29.24521,-8.09911 -14.91325,9.18024 -35.74775,-0.86563 -36.1351,-15.61648 -6.78614,33.36557 56.58558,39.16051 59.97043,82.43802 -47.23025,10.78151 -73.53652,-24.34582 -102.32449,2.81809 -14.71637,-42.66942 -16.07447,-113.99322 52.33945,-140.73476 9.29852,-3.63457 13.20476,-12.98375 21.90625,-19.33324 z m 0.28541,47.06762 c 1.54599,2.19371 4.79765,5.77461 7.65086,5.25028 2.63766,-0.48481 3.69893,-1.37887 3.82063,-4.50276 0.10253,-2.63014 -9.21717,-2.54529 -11.47149,-0.74752 z"
       id="path4618"
       sodipodi:nodetypes="ccssscccccsccssc"
       inkscape:connector-curvature="0" />
  </g>
</svg>
