<?xml version="1.0" encoding="UTF-8" standalone="no"?>
<!-- Created with Inkscape (http://www.inkscape.org/) -->

<svg
   xmlns:dc="http://purl.org/dc/elements/1.1/"
   xmlns:cc="http://creativecommons.org/ns#"
   xmlns:rdf="http://www.w3.org/1999/02/22-rdf-syntax-ns#"
   xmlns:svg="http://www.w3.org/2000/svg"
   xmlns="http://www.w3.org/2000/svg"
   xmlns:sodipodi="http://sodipodi.sourceforge.net/DTD/sodipodi-0.dtd"
   xmlns:inkscape="http://www.inkscape.org/namespaces/inkscape"
   width="52.84375"
   height="52.84375"
   id="svg2"
   version="1.1"
   inkscape:version="0.48.3.1 r9886"
   sodipodi:docname="Nuovo documento 1">
  <defs
     id="defs4">
    <inkscape:path-effect
       effect="spiro"
       id="path-effect2989"
       is_visible="true" />
  </defs>
  <sodipodi:namedview
     id="base"
     pagecolor="#ffffff"
     bordercolor="#666666"
     borderopacity="1.0"
     inkscape:pageopacity="0.0"
     inkscape:pageshadow="2"
     inkscape:zoom="3.959798"
     inkscape:cx="-42.386075"
     inkscape:cy="-17.104556"
     inkscape:document-units="px"
     inkscape:current-layer="layer1"
     showgrid="false"
     fit-margin-top="0"
     fit-margin-left="0"
     fit-margin-right="0"
     fit-margin-bottom="0"
     inkscape:window-width="1920"
     inkscape:window-height="1025"
     inkscape:window-x="0"
     inkscape:window-y="27"
     inkscape:window-maximized="1" />
  <metadata
     id="metadata7">
    <rdf:RDF>
      <cc:Work
         rdf:about="">
        <dc:format>image/svg+xml</dc:format>
        <dc:type
           rdf:resource="http://purl.org/dc/dcmitype/StillImage" />
        <dc:title></dc:title>
      </cc:Work>
    </rdf:RDF>
  </metadata>
  <g
     inkscape:label="Livello 1"
     inkscape:groupmode="layer"
     id="layer1"
     transform="translate(-413.5,-238.3125)">
    <path
       style="fill:#214478;fill-opacity:1;stroke:#214478;stroke-width:4;stroke-linecap:round;stroke-linejoin:miter;stroke-miterlimit:4;stroke-opacity:1;stroke-dasharray:none"
       d="m 418.33611,240.3231 46,46 0,-23.42237 -22.9676,-22.57763 -23.0324,0 z"
       id="rect2985"
       inkscape:connector-curvature="0" />
    <g
       style="font-size:40px;font-style:normal;font-weight:normal;line-height:125%;letter-spacing:0px;word-spacing:0px;fill:#000000;fill-opacity:1;stroke:none;font-family:Sans"
       id="text3765">
      <g
         id="g3817"
         transform="matrix(0.69320717,0.72073839,-0.72073839,0.69320717,383.14897,-215.17217)"
         style="fill:#ffffff">
        <g
           id="g3802"
           style="fill:#ffffff">
          <path
             d="m 368.68951,276.86209 0,0.83984 c -0.25391,-0.13996 -0.50944,-0.24413 -0.7666,-0.3125 -0.25391,-0.0716 -0.51107,-0.10741 -0.77148,-0.10742 -0.58269,10e-6 -1.03516,0.18555 -1.35742,0.55664 -0.32227,0.36785 -0.4834,0.88542 -0.4834,1.55274 0,0.66732 0.16113,1.18652 0.4834,1.55762 0.32226,0.36783 0.77473,0.55175 1.35742,0.55175 0.26041,0 0.51757,-0.0342 0.77148,-0.10254 0.25716,-0.0716 0.51269,-0.1774 0.7666,-0.31738 l 0,0.83008 c -0.25065,0.11719 -0.51107,0.20508 -0.78125,0.26367 -0.26693,0.0586 -0.55176,0.0879 -0.85449,0.0879 -0.82357,0 -1.47786,-0.25879 -1.96289,-0.77637 -0.48503,-0.51757 -0.72754,-1.21581 -0.72754,-2.09472 0,-0.89193 0.24414,-1.59342 0.73242,-2.10449 0.49154,-0.51107 1.16374,-0.7666 2.01661,-0.76661 0.27668,10e-6 0.54687,0.0293 0.81054,0.0879 0.26367,0.0553 0.5192,0.13998 0.7666,0.25391"
             style="font-size:10px;text-align:center;text-anchor:middle;fill:#ffffff"
             id="path3780"
             inkscape:connector-curvature="0" />
          <path
             d="m 372.38092,277.28201 c -0.48177,10e-6 -0.86263,0.18881 -1.14258,0.56641 -0.27995,0.37435 -0.41992,0.88867 -0.41992,1.54297 0,0.6543 0.13835,1.17025 0.41504,1.54785 0.27995,0.37435 0.66243,0.56152 1.14746,0.56152 0.47851,0 0.85774,-0.1888 1.1377,-0.5664 0.27994,-0.37761 0.41991,-0.89193 0.41992,-1.54297 -10e-6,-0.64779 -0.13998,-1.16048 -0.41992,-1.53809 -0.27996,-0.38085 -0.65919,-0.57128 -1.1377,-0.57129 m 0,-0.76172 c 0.78125,1e-5 1.39485,0.25392 1.84082,0.76172 0.44596,0.50782 0.66894,1.21094 0.66895,2.10938 -1e-5,0.89518 -0.22299,1.59831 -0.66895,2.10937 -0.44597,0.50782 -1.05957,0.76172 -1.84082,0.76172 -0.78451,0 -1.39974,-0.2539 -1.8457,-0.76172 -0.44271,-0.51106 -0.66407,-1.21419 -0.66407,-2.10937 0,-0.89844 0.22136,-1.60156 0.66407,-2.10938 0.44596,-0.5078 1.06119,-0.76171 1.8457,-0.76172"
             style="font-size:10px;text-align:center;text-anchor:middle;fill:#ffffff"
             id="path3782"
             inkscape:connector-curvature="0" />
          <path
             d="m 378.4942,277.28201 c -0.48177,10e-6 -0.86263,0.18881 -1.14258,0.56641 -0.27995,0.37435 -0.41992,0.88867 -0.41992,1.54297 0,0.6543 0.13835,1.17025 0.41504,1.54785 0.27995,0.37435 0.66243,0.56152 1.14746,0.56152 0.47851,0 0.85775,-0.1888 1.1377,-0.5664 0.27994,-0.37761 0.41991,-0.89193 0.41992,-1.54297 -1e-5,-0.64779 -0.13998,-1.16048 -0.41992,-1.53809 -0.27995,-0.38085 -0.65919,-0.57128 -1.1377,-0.57129 m 0,-0.76172 c 0.78125,1e-5 1.39485,0.25392 1.84082,0.76172 0.44596,0.50782 0.66894,1.21094 0.66895,2.10938 -10e-6,0.89518 -0.22299,1.59831 -0.66895,2.10937 -0.44597,0.50782 -1.05957,0.76172 -1.84082,0.76172 -0.78451,0 -1.39974,-0.2539 -1.8457,-0.76172 -0.44271,-0.51106 -0.66406,-1.21419 -0.66406,-2.10937 0,-0.89844 0.22135,-1.60156 0.66406,-2.10938 0.44596,-0.5078 1.06119,-0.76171 1.8457,-0.76172"
             style="font-size:10px;text-align:center;text-anchor:middle;fill:#ffffff"
             id="path3784"
             inkscape:connector-curvature="0" />
          <path
             d="m 386.74615,277.70193 c 0.22461,-0.40364 0.49316,-0.70149 0.80567,-0.89355 0.31249,-0.19205 0.68033,-0.28808 1.10351,-0.28809 0.56966,1e-5 1.00911,0.2002 1.31836,0.60059 0.30924,0.39714 0.46386,0.96355 0.46387,1.69922 l 0,3.30078 -0.90332,0 0,-3.27148 c -1e-5,-0.52409 -0.0928,-0.91309 -0.27832,-1.167 -0.18555,-0.2539 -0.46876,-0.38085 -0.84961,-0.38086 -0.4655,1e-5 -0.83334,0.15463 -1.10351,0.46387 -0.27019,0.30925 -0.40528,0.7308 -0.40528,1.26465 l 0,3.09082 -0.90332,0 0,-3.27148 c 0,-0.52734 -0.0928,-0.91634 -0.27832,-1.167 -0.18555,-0.2539 -0.47201,-0.38085 -0.85937,-0.38086 -0.45899,1e-5 -0.82357,0.15626 -1.09375,0.46875 -0.27019,0.30925 -0.40528,0.72917 -0.40528,1.25977 l 0,3.09082 -0.90332,0 0,-5.46875 0.90332,0 0,0.84961 c 0.20508,-0.33528 0.45085,-0.58268 0.73731,-0.74219 0.28645,-0.1595 0.62662,-0.23925 1.02051,-0.23926 0.39713,1e-5 0.73404,0.10092 1.01074,0.30274 0.27994,0.20183 0.48665,0.4948 0.62011,0.8789"
             style="font-size:10px;text-align:center;text-anchor:middle;fill:#ffffff"
             id="path3786"
             inkscape:connector-curvature="0" />
          <path
             d="m 392.23444,276.65213 0.89843,0 0,5.46875 -0.89843,0 0,-5.46875 m 0,-2.12891 0.89843,0 0,1.1377 -0.89843,0 0,-1.1377"
             style="font-size:10px;text-align:center;text-anchor:middle;fill:#ffffff"
             id="path3788"
             inkscape:connector-curvature="0" />
          <path
             d="m 399.55377,278.8201 0,3.30078 -0.89844,0 0,-3.27148 c 0,-0.51758 -0.10091,-0.90495 -0.30273,-1.16211 -0.20183,-0.25716 -0.50456,-0.38574 -0.9082,-0.38575 -0.48503,1e-5 -0.86752,0.15463 -1.14746,0.46387 -0.27995,0.30925 -0.41993,0.7308 -0.41993,1.26465 l 0,3.09082 -0.90332,0 0,-5.46875 0.90332,0 0,0.84961 c 0.21485,-0.32877 0.46712,-0.57454 0.75684,-0.73731 0.29297,-0.16275 0.62988,-0.24413 1.01074,-0.24414 0.62825,1e-5 1.10351,0.19532 1.42578,0.58594 0.32226,0.38738 0.4834,0.95866 0.4834,1.71387"
             style="font-size:10px;text-align:center;text-anchor:middle;fill:#ffffff"
             id="path3790"
             inkscape:connector-curvature="0" />
          <path
             d="m 404.95416,279.32303 c 0,-0.65104 -0.13509,-1.1556 -0.40527,-1.51367 -0.26693,-0.35807 -0.64291,-0.53711 -1.12793,-0.53711 -0.48177,0 -0.85775,0.17904 -1.12793,0.53711 -0.26693,0.35807 -0.40039,0.86263 -0.40039,1.51367 0,0.64779 0.13346,1.15072 0.40039,1.50879 0.27018,0.35807 0.64616,0.53711 1.12793,0.53711 0.48502,0 0.861,-0.17904 1.12793,-0.53711 0.27018,-0.35807 0.40527,-0.861 0.40527,-1.50879 m 0.89844,2.11914 c -10e-6,0.93099 -0.20671,1.62272 -0.62012,2.07519 -0.41341,0.45573 -1.04655,0.6836 -1.89941,0.6836 -0.31576,0 -0.61361,-0.0244 -0.89356,-0.0732 -0.27995,-0.0456 -0.55176,-0.11719 -0.81543,-0.21485 l 0,-0.87402 c 0.26367,0.14323 0.52409,0.24902 0.78125,0.31738 0.25716,0.0684 0.51921,0.10254 0.78614,0.10254 0.58919,0 1.03027,-0.15462 1.32324,-0.46387 0.29296,-0.30599 0.43945,-0.76985 0.43945,-1.3916 l 0,-0.44433 c -0.18555,0.32226 -0.42318,0.56315 -0.71289,0.72265 -0.28972,0.15951 -0.63639,0.23926 -1.04004,0.23926 -0.67057,0 -1.21094,-0.25553 -1.62109,-0.7666 -0.41016,-0.51107 -0.61524,-1.18815 -0.61524,-2.03125 0,-0.84635 0.20508,-1.52506 0.61524,-2.03613 0.41015,-0.51107 0.95052,-0.7666 1.62109,-0.76661 0.40365,10e-6 0.75032,0.0798 1.04004,0.23926 0.28971,0.15951 0.52734,0.4004 0.71289,0.72266 l 0,-0.83008 0.89844,0 0,4.79004"
             style="font-size:10px;text-align:center;text-anchor:middle;fill:#ffffff"
             id="path3792"
             inkscape:connector-curvature="0" />
        </g>
        <g
           transform="translate(0.23301,0)"
           id="g3811"
           style="fill:#ffffff">
          <path
             d="m 377.56783,284.76757 0,0.84961 c -0.25391,-0.1302 -0.51758,-0.22786 -0.79101,-0.29297 -0.27344,-0.0651 -0.55665,-0.0976 -0.84961,-0.0976 -0.44597,0 -0.78125,0.0684 -1.00586,0.20508 -0.22136,0.13672 -0.33203,0.3418 -0.33203,0.61523 0,0.20834 0.0797,0.37272 0.23926,0.49316 0.1595,0.11719 0.48014,0.2295 0.96191,0.33692 l 0.30762,0.0684 c 0.63801,0.13672 1.09049,0.3304 1.35742,0.58105 0.27018,0.2474 0.40527,0.59408 0.40527,1.04004 0,0.50781 -0.20183,0.90983 -0.60547,1.20606 -0.40039,0.29622 -0.95215,0.44433 -1.65527,0.44433 -0.29297,0 -0.59896,-0.0293 -0.91797,-0.0879 -0.31576,-0.0553 -0.64941,-0.13997 -1.00098,-0.25391 l 0,-0.92773 c 0.33204,0.17253 0.65918,0.30274 0.98145,0.39063 0.32226,0.0846 0.64127,0.12695 0.95703,0.12695 0.42318,0 0.7487,-0.0716 0.97656,-0.21485 0.22786,-0.14648 0.3418,-0.35156 0.3418,-0.61523 0,-0.24414 -0.083,-0.43131 -0.24902,-0.56152 -0.16277,-0.13021 -0.52247,-0.25553 -1.0791,-0.37598 l -0.3125,-0.0732 c -0.55665,-0.11719 -0.95866,-0.29622 -1.20606,-0.53711 -0.2474,-0.24414 -0.37109,-0.5778 -0.37109,-1.00098 0,-0.51432 0.18229,-0.91145 0.54687,-1.1914 0.36458,-0.27995 0.88216,-0.41992 1.55274,-0.41993 0.33202,1e-5 0.64452,0.0244 0.9375,0.0733 0.29296,0.0488 0.56314,0.12207 0.81054,0.21972"
             style="font-size:10px;text-align:center;text-anchor:middle;fill:#ffffff"
             id="path3794"
             inkscape:connector-curvature="0" />
          <path
             d="m 381.41549,285.23632 c -0.48177,1e-5 -0.86263,0.18881 -1.14258,0.56641 -0.27995,0.37435 -0.41992,0.88867 -0.41992,1.54297 0,0.6543 0.13834,1.17025 0.41504,1.54785 0.27994,0.37435 0.66243,0.56152 1.14746,0.56152 0.47851,0 0.85774,-0.1888 1.1377,-0.5664 0.27994,-0.37761 0.41991,-0.89193 0.41992,-1.54297 -1e-5,-0.64779 -0.13998,-1.16048 -0.41992,-1.53809 -0.27996,-0.38085 -0.65919,-0.57128 -1.1377,-0.57129 m 0,-0.76172 c 0.78125,10e-6 1.39485,0.25392 1.84082,0.76172 0.44596,0.50782 0.66894,1.21094 0.66895,2.10938 -10e-6,0.89518 -0.22299,1.59831 -0.66895,2.10937 -0.44597,0.50782 -1.05957,0.76172 -1.84082,0.76172 -0.78451,0 -1.39974,-0.2539 -1.8457,-0.76172 -0.44271,-0.51106 -0.66407,-1.21419 -0.66407,-2.10937 0,-0.89844 0.22136,-1.60156 0.66407,-2.10938 0.44596,-0.5078 1.06119,-0.76171 1.8457,-0.76172"
             style="font-size:10px;text-align:center;text-anchor:middle;fill:#ffffff"
             id="path3796"
             inkscape:connector-curvature="0" />
          <path
             d="m 387.52877,285.23632 c -0.48177,1e-5 -0.86263,0.18881 -1.14258,0.56641 -0.27995,0.37435 -0.41992,0.88867 -0.41992,1.54297 0,0.6543 0.13835,1.17025 0.41504,1.54785 0.27995,0.37435 0.66243,0.56152 1.14746,0.56152 0.47851,0 0.85774,-0.1888 1.1377,-0.5664 0.27994,-0.37761 0.41991,-0.89193 0.41992,-1.54297 -10e-6,-0.64779 -0.13998,-1.16048 -0.41992,-1.53809 -0.27996,-0.38085 -0.65919,-0.57128 -1.1377,-0.57129 m 0,-0.76172 c 0.78125,10e-6 1.39485,0.25392 1.84082,0.76172 0.44596,0.50782 0.66894,1.21094 0.66895,2.10938 -1e-5,0.89518 -0.22299,1.59831 -0.66895,2.10937 -0.44597,0.50782 -1.05957,0.76172 -1.84082,0.76172 -0.78451,0 -1.39974,-0.2539 -1.8457,-0.76172 -0.44271,-0.51106 -0.66407,-1.21419 -0.66406,-2.10937 -10e-6,-0.89844 0.22135,-1.60156 0.66406,-2.10938 0.44596,-0.5078 1.06119,-0.76171 1.8457,-0.76172"
             style="font-size:10px;text-align:center;text-anchor:middle;fill:#ffffff"
             id="path3798"
             inkscape:connector-curvature="0" />
          <path
             d="m 396.06881,286.77441 0,3.30078 -0.89844,0 0,-3.27148 c 0,-0.51758 -0.10091,-0.90495 -0.30273,-1.16211 -0.20183,-0.25716 -0.50456,-0.38574 -0.9082,-0.38575 -0.48503,10e-6 -0.86752,0.15463 -1.14747,0.46387 -0.27995,0.30925 -0.41992,0.7308 -0.41992,1.26465 l 0,3.09082 -0.90332,0 0,-5.46875 0.90332,0 0,0.84961 c 0.21484,-0.32877 0.46712,-0.57454 0.75684,-0.73731 0.29296,-0.16275 0.62988,-0.24413 1.01074,-0.24414 0.62825,10e-6 1.10351,0.19532 1.42578,0.58594 0.32226,0.38738 0.48339,0.95866 0.4834,1.71387"
             style="font-size:10px;text-align:center;text-anchor:middle;fill:#ffffff"
             id="path3800"
             inkscape:connector-curvature="0" />
        </g>
      </g>
    </g>
    <flowRoot
       xml:space="preserve"
       id="flowRoot3771"
       style="font-size:40px;font-style:normal;font-weight:normal;line-height:125%;letter-spacing:0px;word-spacing:0px;fill:#000000;fill-opacity:1;stroke:none;font-family:Sans"><flowRegion
         id="flowRegion3773"><rect
           id="rect3775"
           width="71.973366"
           height="41.163715"
           x="340.92648"
           y="266.96857" /></flowRegion><flowPara
         id="flowPara3777"></flowPara></flowRoot>  </g>
</svg>
