<?xml version="1.0" encoding="UTF-8" standalone="no"?>
<!-- Generator: IcoMoon.io -->

<svg
   xmlns:dc="http://purl.org/dc/elements/1.1/"
   xmlns:cc="http://creativecommons.org/ns#"
   xmlns:rdf="http://www.w3.org/1999/02/22-rdf-syntax-ns#"
   xmlns:svg="http://www.w3.org/2000/svg"
   xmlns="http://www.w3.org/2000/svg"
   xmlns:xlink="http://www.w3.org/1999/xlink"
   xmlns:sodipodi="http://sodipodi.sourceforge.net/DTD/sodipodi-0.dtd"
   xmlns:inkscape="http://www.inkscape.org/namespaces/inkscape"
   width="64"
   height="64"
   viewBox="0 0 64 64"
   id="svg2"
   version="1.1"
   inkscape:version="0.48.4 r9939"
   sodipodi:docname="flip.svg">
  <metadata
     id="metadata74">
    <rdf:RDF>
      <cc:Work
         rdf:about="">
        <dc:format>image/svg+xml</dc:format>
        <dc:type
           rdf:resource="http://purl.org/dc/dcmitype/StillImage" />
      </cc:Work>
    </rdf:RDF>
  </metadata>
  <defs
     id="defs72">
    <linearGradient
       inkscape:collect="always"
       id="linearGradient4062">
      <stop
         style="stop-color:#000000;stop-opacity:1;"
         offset="0"
         id="stop4064" />
      <stop
         style="stop-color:#000000;stop-opacity:0;"
         offset="1"
         id="stop4066" />
    </linearGradient>
    <linearGradient
       inkscape:collect="always"
       xlink:href="#linearGradient4062"
       id="linearGradient4068"
       x1="56.35593"
       y1="39.322033"
       x2="5.3389869"
       y2="-4.6101704"
       gradientUnits="userSpaceOnUse" />
  </defs>
  <sodipodi:namedview
     pagecolor="#ffffff"
     bordercolor="#666666"
     borderopacity="1"
     objecttolerance="10"
     gridtolerance="10"
     guidetolerance="10"
     inkscape:pageopacity="0"
     inkscape:pageshadow="2"
     inkscape:window-width="1920"
     inkscape:window-height="1021"
     id="namedview70"
     showgrid="false"
     fit-margin-top="7"
     fit-margin-left="7"
     fit-margin-right="7"
     fit-margin-bottom="7"
     inkscape:zoom="7.375"
     inkscape:cx="15.099309"
     inkscape:cy="27.428737"
     inkscape:window-x="0"
     inkscape:window-y="27"
     inkscape:window-maximized="1"
     inkscape:current-layer="svg2" />
  <path
     d="M 32,7 C 18.389258,7 7.3194336,17.87705 7.0074219,31.41279 7.2964844,19.60303 16.276562,10.125 27.3125,10.125 c 11.218262,0 20.3125,9.79375 20.3125,21.875 0,2.58887 2.098633,4.6875 4.6875,4.6875 C 54.901367,36.6875 57,34.58887 57,32 57,18.19287 45.807129,7 32,7 z m 0,50 C 45.610742,57 56.680566,46.12295 56.992578,32.58721 56.703516,44.39697 47.723437,53.875 36.6875,53.875 25.469238,53.875 16.375,44.08125 16.375,32 c 0,-2.58887 -2.098633,-4.6875 -4.6875,-4.6875 C 9.0986328,27.3125 7,29.41113 7,32 7,45.80713 18.192871,57 32,57 z"
     id="path68"
     inkscape:connector-curvature="0"
     style="fill-opacity:1;fill:url(#linearGradient4068)" />
</svg>
