<?xml version="1.0" encoding="UTF-8" standalone="no"?>
<!-- Created with Inkscape (http://www.inkscape.org/) -->

<svg
   xmlns:dc="http://purl.org/dc/elements/1.1/"
   xmlns:cc="http://creativecommons.org/ns#"
   xmlns:rdf="http://www.w3.org/1999/02/22-rdf-syntax-ns#"
   xmlns:svg="http://www.w3.org/2000/svg"
   xmlns="http://www.w3.org/2000/svg"
   xmlns:sodipodi="http://sodipodi.sourceforge.net/DTD/sodipodi-0.dtd"
   xmlns:inkscape="http://www.inkscape.org/namespaces/inkscape"
   width="63.200001"
   height="63.200062"
   id="svg2"
   version="1.1"
   inkscape:version="0.48.3.1 r9886"
   sodipodi:docname="lesson.svg">
  <defs
     id="defs4">
    <inkscape:path-effect
       effect="spiro"
       id="path-effect5312"
       is_visible="true" />
    <inkscape:path-effect
       effect="spiro"
       id="path-effect5126"
       is_visible="true" />
    <marker
       inkscape:stockid="Arrow1Mend"
       orient="auto"
       refY="0"
       refX="0"
       id="Arrow1Mend"
       style="overflow:visible">
      <path
         id="path4693"
         d="M 0,0 5,-5 -12.5,0 5,5 0,0 z"
         style="fill-rule:evenodd;stroke:#000000;stroke-width:1pt"
         transform="matrix(-0.4,0,0,-0.4,-4,0)"
         inkscape:connector-curvature="0" />
    </marker>
    <inkscape:path-effect
       effect="spiro"
       id="path-effect4678"
       is_visible="true" />
    <marker
       inkscape:stockid="Arrow1Mend"
       orient="auto"
       refY="0"
       refX="0"
       id="Arrow1Mend-8"
       style="overflow:visible">
      <path
         inkscape:connector-curvature="0"
         id="path4693-6"
         d="M 0,0 5,-5 -12.5,0 5,5 0,0 z"
         style="fill-rule:evenodd;stroke:#000000;stroke-width:1pt"
         transform="matrix(-0.4,0,0,-0.4,-4,0)" />
    </marker>
    <inkscape:path-effect
       effect="spiro"
       id="path-effect5312-7"
       is_visible="true" />
  </defs>
  <sodipodi:namedview
     id="base"
     pagecolor="#ffffff"
     bordercolor="#666666"
     borderopacity="1.0"
     inkscape:pageopacity="0.0"
     inkscape:pageshadow="2"
     inkscape:zoom="1.979899"
     inkscape:cx="190.71504"
     inkscape:cy="-11.349759"
     inkscape:document-units="px"
     inkscape:current-layer="g3971"
     showgrid="true"
     width="64px"
     inkscape:window-width="785"
     inkscape:window-height="978"
     inkscape:window-x="1"
     inkscape:window-y="55"
     inkscape:window-maximized="0"
     fit-margin-top="0.1"
     fit-margin-left="0.1"
     fit-margin-right="0.1"
     fit-margin-bottom="0.1">
    <inkscape:grid
       type="xygrid"
       id="grid3774"
       empspacing="5"
       visible="true"
       enabled="true"
       snapvisiblegridlinesonly="true"
       originx="0.10000001px"
       originy="189.10007px"
       spacingx="21px"
       spacingy="21px" />
  </sodipodi:namedview>
  <metadata
     id="metadata7">
    <rdf:RDF>
      <cc:Work
         rdf:about="">
        <dc:format>image/svg+xml</dc:format>
        <dc:type
           rdf:resource="http://purl.org/dc/dcmitype/StillImage" />
        <dc:title />
      </cc:Work>
    </rdf:RDF>
  </metadata>
  <g
     inkscape:label="Livello 1"
     inkscape:groupmode="layer"
     id="layer1"
     transform="translate(0.09999999,-1178.2622)">
    <g
       id="g5527"
       transform="matrix(1.276,0,0,1.276,-0.81142873,-274.60192)">
      <g
         id="g3971">
        <path
           transform="matrix(0.78369906,0,0,0.78369906,0.63591594,989.78382)"
           id="path3917"
           d="m 5,190 c -0.6924993,0 -1.3389069,0.12746 -1.9375,0.34375 -0.5985931,0.21629 -1.1418755,0.51893 -1.59375,0.90625 -0.4518745,0.38732 -0.81015652,0.86192 -1.0625,1.375 C 0.15390652,193.13808 0,193.68768 0,194.28125 L 0,211 l 21,0 0,-21 -16,0 z"
           style="fill:#4d6db5;fill-opacity:1;stroke:none"
           inkscape:connector-curvature="0" />
        <rect
           ry="0"
           style="fill:#ffffff;fill-opacity:1;fill-rule:evenodd;stroke:none"
           id="rect4586-1"
           width="16.45768"
           height="16.45768"
           x="17.093597"
           y="1171.6021" />
        <rect
           ry="0"
           style="fill:#ffffff;fill-opacity:1;fill-rule:evenodd;stroke:none"
           id="rect4586-1-9"
           width="16.45768"
           height="16.45768"
           x="0.63591748"
           y="1155.1444" />
        <rect
           ry="0"
           style="fill:#ff5555;fill-opacity:1;fill-rule:evenodd;stroke:none"
           id="rect4586-1-1"
           width="16.45768"
           height="16.45768"
           x="17.093597"
           y="1138.6866" />
        <rect
           ry="0"
           style="fill:#ff5555;fill-opacity:1;fill-rule:evenodd;stroke:none"
           id="rect4586-1-5"
           width="16.45768"
           height="16.45768"
           x="33.551277"
           y="1155.1444" />
        <rect
           style="fill:#4d6db5;fill-opacity:1;stroke:none"
           id="rect3776-0-7"
           width="16.457672"
           height="16.457672"
           x="17.093596"
           y="1155.1443" />
        <path
           transform="matrix(0.78369906,0,0,0.78369906,0.63591594,989.78382)"
           id="rect3776-0-8"
           d="m 63,211 0,-16.71875 c 0,-0.59357 -0.153907,-1.14317 -0.40625,-1.65625 -0.252343,-0.51308 -0.610625,-0.98768 -1.0625,-1.375 -0.451875,-0.38732 -0.995157,-0.68996 -1.59375,-0.90625 C 59.338907,190.12746 58.692499,190 58,190 l -16,0 0,21 21,0 z"
           style="fill:#4d6db5;fill-opacity:1;stroke:none"
           inkscape:connector-curvature="0" />
        <path
           transform="matrix(0.78369906,0,0,0.78369906,0.63591594,989.78382)"
           id="rect3776-0-88"
           d="m 0,232 0,16.71875 c 0,0.59357 0.15390652,1.14317 0.40625,1.65625 0.25234348,0.51308 0.6106255,0.98768 1.0625,1.375 0.4518745,0.38732 0.9951569,0.68996 1.59375,0.90625 C 3.6610931,252.87254 4.3075007,253 5,253 l 16,0 0,-21 -21,0 z"
           style="fill:#008000;fill-opacity:1;stroke:none"
           inkscape:connector-curvature="0" />
        <path
           transform="matrix(0.78369906,0,0,0.78369906,0.63591594,989.78382)"
           id="rect3776-0-4"
           d="m 42,253 16,0 c 0.692499,0 1.338907,-0.12746 1.9375,-0.34375 0.598593,-0.21629 1.141875,-0.51893 1.59375,-0.90625 0.451875,-0.38732 0.810157,-0.86192 1.0625,-1.375 C 62.846093,249.86192 63,249.31232 63,248.71875 L 63,232 l -21,0 0,21 z"
           style="fill:#4d6db5;fill-opacity:1;stroke:none"
           inkscape:connector-curvature="0" />
        <g
           transform="matrix(0.02803562,0,0,0.02803562,9.3047058,1159.1083)"
           id="layer1-5">
          <path
             inkscape:connector-curvature="0"
             d="m 155.20596,472.75244 c -8.07535,-4.03204 -9.2765,-27.80874 -2.42281,-47.95944 5.85737,-17.22141 12.61645,-26.32138 38.45478,-51.77304 23.27796,-22.92963 29.47878,-30.47751 36.72252,-44.70022 8.645,-16.974 12.05438,-30.40116 12.9624,-51.04978 0.32046,-7.2875 0.34192,-13.25 0.0477,-13.25 -0.29425,0 -5.19915,2.85102 -10.89978,6.3356 -5.70063,3.48459 -18.53478,10.48365 -28.52033,15.55348 -37.89899,19.24195 -43.84913,24.89148 -60.75903,57.68933 -3.14149,6.09314 -7.72568,13.64431 -10.18708,16.78039 -7.88659,10.04835 -20.5638,17.6412 -29.45411,17.6412 -3.794392,0 -10.7463,-2.61166 -14.42904,-5.42062 -1.717193,-1.30975 -3.93418,-4.18212 -4.92665,-6.38303 -1.633732,-3.62297 -2.24377,-4.06638 -6.44651,-4.68571 -28.705762,-4.2302 -49.06347,-29.20405 -46.80678,-57.42031 1.4509,-18.14098 9.61361,-36.27694 30.14166,-66.96887 14.049101,-21.00511 19.75872,-31.19171 23.67574,-42.24014 2.030428,-5.72709 2.26673,-8.27798 2.30486,-24.88132 l 0.04249,-18.5 3.239174,-6.83914 c 2.698703,-5.69799 5.538853,-9.11855 17.021556,-20.5 7.58031,-7.51347 15.08691,-15.59577 16.68134,-17.96066 l 2.89895,-4.29979 -2.19455,-27.700201 C 119.32745,36.03771 119.3197,36.13701 125.52777,33.52671 c 4.22878,-1.778071 4.0243,-1.87668 35.99478,17.35875 14.74909,8.87397 27.15886,16.1345 27.57725,16.1345 0.41838,2e-6 8.31951,-8.09013 17.55806,-17.97806 13.92007,-14.898521 17.39095,-18.08942 20.26262,-18.62815 6.10635,-1.14556 7.55403,0.89881 19.98313,28.21946 l 11.39308,25.043327 6.20465,-0.908555 c 8.90869,-1.304522 30.59904,-0.154342 41.86322,2.219898 20.45353,4.311153 40.76426,13.10576 57.20656,24.77062 10.97762,7.78799 28.65765,25.6692 36.84225,37.26146 17.68534,25.04861 30.50289,53.0843 42.25224,92.41784 20.17488,67.53984 32.60327,146.52227 32.93391,209.29516 0.10412,19.76755 0.0563,20.26341 -2.17123,22.5 l -2.27769,2.287 -156.72232,0.24035 c -123.64927,0.18964 -157.24986,-0.0231 -159.22229,-1.00788 l 0,10e-6 z"
             transform="translate(-267.6926,489.51905)"
             id="path2452"
             style="fill:#000000" />
          <path
             inkscape:connector-curvature="0"
             d="m 155.79091,67.8592 c -8.84672,-5.31342 -16.21166,-9.53672 -16.36652,-9.3851 -0.15486,0.151622 0.25647,7.4707 0.91408,16.26462 l 1.19565,15.988956 15.17087,-6.603859 15.17086,-6.603859 -16.08494,-9.660758 z"
             transform="translate(-267.6926,489.51905)"
             id="path2390"
             style="fill:#ffffff" />
          <path
             inkscape:connector-curvature="0"
             d="m 458.84439,455.47241 c 2.88737,-2.88735 2.88673,-3.01163 -0.21959,-42.45245 -5.80317,-73.68271 -23.7723,-160.39198 -43.62277,-210.5 -5.81352,-14.67489 -16.89467,-35.65192 -24.56372,-46.5 -16.46172,-23.28554 -40.92997,-42.35495 -65.81357,-51.29199 -14.92928,-5.361906 -26.48768,-7.21539 -44.41878,-7.12289 -10.71728,0.05528 -19.11607,0.62875 -23.9645,1.6363 -4.10548,0.85315 -7.9871,1.35065 -8.62584,1.10554 -0.63873,-0.2451 -4.67031,-8.18144 -8.95905,-17.6363 -4.28875,-9.454857 -8.9156,-19.63615 -10.28191,-22.62509 l -2.48419,-5.43443 -15.59225,16.10154 -15.59227,16.101539 -27.1653,11.690422 -27.16531,11.690409 -6.55024,8.7716 c -3.60263,4.82438 -11.0699,12.9421 -16.59393,18.03939 -14.83037,13.68467 -14.51069,12.94066 -14.59713,33.97396 -0.0619,15.0621 -0.38278,18.54481 -2.3034,25 -3.786313,12.7257 -12.22047,28.62139 -26.5297,50 -15.696621,23.45142 -23.86327,39.04316 -26.19534,50.01202 -1.982048,9.32256 -1.39844,20.96752 1.35868,27.1102 4.867461,10.84437 16.83101,19.44777 28.56727,20.54372 l 6.421201,0.59962 6.698128,-8.88278 c 3.683971,-4.88553 7.678441,-9.42933 8.876601,-10.09734 4.84537,-2.70143 10.06021,-0.9855 12.15649,4.00009 1.76395,4.19521 0.88626,6.21643 -7.60873,17.52221 -3.84653,5.11925 -6.84946,10.06925 -6.67317,11 0.580121,3.06283 6.79434,2.7062 11.43618,-0.65633 6.42666,-4.65544 10.71226,-10.65808 19.42918,-27.21348 4.47069,-8.49086 10.08352,-18.18035 12.47294,-21.53221 9.17344,-12.86841 23.00561,-22.88692 51.81004,-37.52556 28.33912,-14.40217 53.40227,-30.38481 60.79871,-38.77102 8.72112,-9.88815 12.41785,-21.42094 11.55313,-36.04262 -0.64781,-10.95374 0.45954,-14.22799 5.39352,-15.94798 2.50438,-0.87304 3.8295,-0.77613 6.46076,0.47248 4.18183,1.98441 5.47457,5.43134 6.16609,16.44107 1.0554,16.80292 -6.47168,36.64493 -18.57095,48.95463 l -6.64571,6.76129 0.80527,6.37598 c 1.19897,9.49312 -0.004,31.08807 -2.30491,41.37601 -4.53484,20.27643 -13.06871,39.58574 -24.23813,54.84281 -3.31221,4.52438 -15.6641,17.73225 -27.73515,29.65719 -21.53182,21.2712 -27.75808,28.80213 -32.65426,39.49684 -3.11546,6.80501 -5.33326,17.26291 -5.35546,25.25316 l -0.0174,6.25 141.44098,0 c 93.2153,0 141.65171,0.34096 142.05902,1 1.20934,1.95675 6.53623,1.05467 9.13844,-1.54754 l -10e-6,-10e-6 z"
             transform="translate(-267.6926,489.51905)"
             id="path2384-9"
             style="fill:#ffffff" />
          <path
             inkscape:connector-curvature="0"
             d="m 115.27895,190.86459 c 4.52417,-8.52249 17.56843,-29.50557 20.21896,-32.52436 5.39298,-6.14227 13.75128,-8.77513 20.14295,-6.34502 1.41082,0.53639 2.5651,1.55912 2.5651,2.27275 0,3.11462 -8.10998,14.86074 -15.02544,21.76217 -5.7085,5.69689 -9.57157,8.5214 -16,11.69846 -4.66101,2.30355 -9.52568,4.47906 -10.81039,4.83445 -2.1847,0.60438 -2.2553,0.49448 -1.09118,-1.69845 z"
             transform="translate(-267.6926,489.51905)"
             id="path2388-5"
             style="fill:#000000" />
          <path
             inkscape:connector-curvature="0"
             d="m 53.402748,313.38016 c 0.381622,-7.92504 1.013502,-11.13978 3.074432,-15.64145 2.72794,-5.95859 7.17714,-9.70794 11.52844,-9.71501 5.627707,-0.009 11.20034,5.61243 11.20034,11.29872 -3e-6,4.31172 -4.31337,8.95141 -15.3919,16.55634 l -10.891651,7.47665 0.480339,-9.97525 z"
             transform="translate(-267.6926,489.51905)"
             id="path2386-7"
             style="fill:#000000" />
        </g>
        <g
           transform="matrix(0.03108277,0,0,0.03108277,42.257382,1154.2316)"
           id="layer1-0">
          <g
             transform="translate(-1.6317841e-6,560.00002)"
             id="g2582">
            <path
               inkscape:connector-curvature="0"
               d="m 203.5746,-93.525513 c -35.66934,-2.272337 -64.83474,-9.042617 -89.8246,-20.851337 -12.58897,-5.94879 -11.64109,-2.79836 -8.43504,-28.03499 l 2.22319,-17.49999 -2.30581,-25.5 c -1.50744,-16.6707 -2.73743,-25.84626 -3.55237,-26.50001 -0.68561,-0.55001 -3.89394,-5.725 -7.12963,-11.5 -8.558749,-15.27552 -18.67559,-30.52794 -31.17479,-47 -14.761109,-19.45293 -18.91214,-25.73426 -23.55744,-35.64708 -9.296461,-19.83812 -9.05257,-38.33775 0.76773,-58.23252 3.567602,-7.22756 6.26857,-11.03431 11.77202,-16.59158 24.180679,-24.4171 60.95714,-26.95983 100.76544,-6.96689 28.37544,14.251 48.25519,30.61935 69.75987,57.43807 1.49884,1.86921 0.65778,-1.66316 -3.3334,-14 -7.64436,-23.62893 -9.00015,-30.81699 -8.95925,-47.5 0.0292,-11.92454 0.37098,-14.96361 2.30525,-20.5 5.14788,-14.73457 14.70558,-26.41125 25.87318,-31.60937 l 6.21024,-2.89062 0.0104,-19.75 0.0104,-19.75 -16.5,0 -16.5,0 0,-7.5 0,-7.5 16.5,0 16.5,0 0,-11.00004 0,-11 7.5,0 7.5,0 0,11 0,11.00004 16,0 16,0 0,7.5 0,7.5 -16,0 -16,0 0,19.88266 0,19.88262 5.75,2.80332 c 10.81017,5.27033 20.34309,17.08819 25.35423,31.43139 1.93426,5.53638 2.27602,8.57547 2.30525,20.5 0.0409,16.683 -1.31489,23.87108 -8.95925,47.5 -3.99117,12.33683 -4.83224,15.86922 -3.3334,14 21.50469,-26.81873 41.38442,-43.18707 69.75987,-57.43807 39.80829,-19.99294 76.58476,-17.45022 100.76544,6.96689 5.50344,5.55728 8.20442,9.36402 11.77202,16.59158 9.82031,19.89477 10.06419,38.39439 0.76773,58.23252 -4.64529,9.91283 -8.79633,16.19416 -23.55744,35.64708 -12.4992,16.47205 -22.61604,31.72449 -31.17479,47 -3.23568,5.77499 -6.44402,10.95 -7.12963,11.5 -0.81495,0.65374 -2.04493,9.82931 -3.55237,26.5 l -2.30581,25.50001 2.22318,17.5 c 3.19753,25.16947 4.00045,22.19226 -7.43503,27.56886 -14.04657,6.60426 -21.07571,9.14317 -35.89442,12.96497 -16.35804,4.218788 -35.91359,7.09259 -57.35558,8.4287 -18.98257,1.182863 -75.37592,1.13735 -94.4254,-0.07621 l 0,-3e-6 z"
               transform="translate(-267.35463,46.40875)"
               id="path2439"
               style="fill:#000000" />
            <path
               inkscape:connector-curvature="0"
               d="m 253,-270.1087 c 0,-0.93328 6.53047,-21.11859 14.51215,-44.85625 15.72928,-46.77914 18.13798,-55.72386 19.10518,-70.94689 1.23166,-19.38546 -3.42242,-34.46426 -13.83244,-44.81591 -7.339,-7.29785 -11.5493,-9.15165 -20.78489,-9.15165 -9.23558,-1e-5 -13.44588,1.8538 -20.78489,9.15165 -10.41002,10.35165 -15.0641,25.43046 -13.83244,44.81591 0.9672,15.22302 3.37591,24.16776 19.10518,70.94689 7.98168,23.73765 14.51215,43.92297 14.51215,44.85624 1e-5,0.93327 0.45,1.69687 1,1.69687 0.55001,-1e-5 1,-0.76359 1,-1.69687 l 0,10e-6 z"
               transform="translate(-267.35463,46.40875)"
               id="path2578"
               style="fill:#ffffff" />
            <path
               inkscape:connector-curvature="0"
               d="m 130.18236,-210.92567 c 21.65502,-6.17751 47.89189,-11.1436 74.81764,-14.16144 21.67908,-2.42979 72.32093,-2.42979 94,0 26.92576,3.01784 53.16262,7.98393 74.81764,14.16143 6.77471,1.9326 13.15268,3.51384 14.17328,3.51384 3.55527,-10e-6 7.96364,-5.18313 15.13916,-17.79978 10.21384,-17.95889 19.78725,-32.45415 32.49437,-49.20022 14.35541,-18.91828 18.9625,-25.81241 22.57786,-33.78591 15.22691,-33.58222 -0.66759,-71.56617 -34.70231,-82.93001 -7.16365,-2.39188 -9.46362,-2.6693 -22,-2.65368 -11.85781,0.0147 -15.46492,0.41126 -23.57377,2.59121 -26.06896,7.00828 -51.66541,22.58833 -74.39956,45.28549 -13.22269,13.20119 -22.78272,25.93179 -30.43482,40.52851 -5.51711,10.52413 -10.12216,26.63483 -14.26909,49.92016 l -2.32276,13.04253 -4.5,0 -4.5,0 -2.32275,-13.04253 c -4.14694,-23.28533 -8.75199,-39.39602 -14.2691,-49.92016 -7.6521,-14.59673 -17.21213,-27.32733 -30.43482,-40.52851 -22.73414,-22.69715 -48.33061,-38.2772 -74.39956,-45.28549 -8.10885,-2.17996 -11.71596,-2.57645 -23.57377,-2.59121 -12.53638,-0.0156 -14.83635,0.26181 -22,2.65368 -34.03472,11.36383 -49.92921,49.34779 -34.70231,82.93001 3.615359,7.9735 8.22245,14.86764 22.57786,33.78591 12.707121,16.74606 22.28054,31.24133 32.49437,49.20022 7.17552,12.61665 11.5839,17.79978 15.13916,17.79978 1.0206,-10e-6 7.39858,-1.58123 14.17328,-3.51384 l 0,1e-5 z"
               transform="translate(-267.35463,46.40875)"
               id="path2572"
               style="fill:#ffffff" />
            <path
               inkscape:connector-curvature="0"
               d="m 132.9234,-156.33952 c 23.28102,-8.56673 50.54521,-15.15012 77.5766,-18.73215 9.70352,-1.28585 20.22693,-1.72268 41.5,-1.72268 21.27308,1e-5 31.79649,0.43683 41.5,1.72268 27.17443,3.60098 54.28697,10.16225 77.9058,18.85328 12.11199,4.45684 14.83472,4.41384 17.46703,-0.27595 1.9763,-3.52103 0.75344,-7.56604 -2.9723,-9.8318 -4.61723,-2.80789 -32.41106,-11.78324 -48.29708,-15.59636 -31.52101,-7.56599 -52.14544,-9.96745 -85.60345,-9.96745 -39.69539,0 -71.45346,4.72909 -107.77555,16.04885 C 119.34243,-168.08664 114,-165.22363 114,-159.64388 c 0,2.68961 4.13243,7.23204 6.57929,7.23204 0.91861,-10e-6 6.47346,-1.76746 12.34411,-3.92769 l 0,1e-5 z"
               transform="translate(-267.35463,46.40875)"
               id="path2570"
               style="fill:#ffffff" />
            <path
               inkscape:connector-curvature="0"
               d="m 126.11168,-116.30199 c 27.66009,-12.51377 66.42071,-22.19868 100.19279,-25.03462 50.23112,-4.21806 103.69343,4.48031 150.1341,24.42698 l 8.40579,3.61035 5.07782,-2.57312 c 10.99382,-5.57099 4.7239,-10.80234 -26.42218,-22.0455 -33.50186,-12.09356 -75.75675,-19.47331 -111.5,-19.47331 -35.74324,-1e-5 -77.99813,7.37976 -111.5,19.47331 -30.8796,11.14696 -37.32653,16.43474 -26.75,21.94033 2.6125,1.35993 5.02526,2.49356 5.36168,2.51917 0.33643,0.0256 3.48643,-1.25401 7,-2.84359 z"
               transform="translate(-267.35463,46.40875)"
               id="path2568"
               style="fill:#ffffff" />
            <path
               inkscape:connector-curvature="0"
               d="m 243.68834,-318.16183 c -8.73996,-25.9914 -12.98286,-41.99598 -15.30986,-57.75001 -3.4696,-23.48967 1.21383,-41.56945 12.74503,-49.20044 3.56758,-2.36091 5.27179,-2.79956 10.87649,-2.79956 5.60471,-1e-5 7.30891,0.43866 10.87649,2.79956 15.02901,9.94573 17.72238,33.9454 8.1027,72.20044 -3.34029,13.28354 -17.93495,57.5 -18.97919,57.5 -0.3639,-1e-5 -4.10416,-10.2375 -8.31166,-22.75 l 0,10e-6 z"
               transform="translate(-267.35463,46.40875)"
               id="path2580"
               style="fill:#000000" />
            <path
               inkscape:connector-curvature="0"
               d="m 385,-226.54491 c -1.375,-0.55345 -9.25,-2.75964 -17.5,-4.90265 -28.695,-7.45376 -56.78872,-11.58217 -86.03319,-12.64269 l -17.03319,-0.6177 0.71686,-7.50506 c 4.02102,-42.09621 30.49784,-81.01903 75.74773,-111.35458 39.57802,-26.53312 74.1303,-29.93849 96.7093,-9.53136 12.39466,11.20242 18.00324,31.70363 13.93068,50.9212 -2.93282,13.83945 -8.74653,23.82996 -31.74354,54.5495 -6.29281,8.40595 -15.2098,21.34347 -19.81554,28.75 -8.80476,14.15903 -9.34282,14.60204 -14.97911,12.33335 l 0,-10e-6 z"
               transform="translate(-267.35463,46.40875)"
               id="path2576"
               style="fill:#000000" />
            <path
               inkscape:connector-curvature="0"
               d="m 104.06905,-238.8008 c -4.63223,-7.44913 -13.57089,-20.42148 -19.8637,-28.82745 -17.811413,-23.7926 -21.95803,-29.97896 -26.28868,-39.22033 -9.081392,-19.37919 -9.16593,-37.78143 -0.25152,-54.74559 7.94057,-15.11092 25.29989,-24.81767 44.38337,-24.81767 22.75148,-1e-5 52.32254,13.80688 81.03589,37.83607 33.26042,27.83448 52.37906,60.91407 55.77924,96.5108 l 0.73102,7.65314 -10.04732,0.0103 c -28.21539,0.029 -68.44584,5.95074 -99.04735,14.5794 -7.15,2.01606 -14.12696,3.86799 -15.50436,4.11538 -2.27558,0.4087 -3.27379,-0.78752 -10.92659,-13.09406 z"
               transform="translate(-267.35463,46.40875)"
               id="path2574"
               style="fill:#000000" />
          </g>
        </g>
        <g
           transform="matrix(0.0284455,0,0,0.0284455,3.3537309,1135.8047)"
           id="layer1-08">
          <path
             inkscape:connector-curvature="0"
             d="m 180.91718,473.60516 c -20.7038,-1.45176 -39.94723,-5.47248 -55.38871,-11.57292 -9.34194,-3.6907 -21.00443,-9.69978 -22.0225,-11.34705 -0.32008,-0.51789 3.71014,-10.80974 8.95604,-22.87076 5.24589,-12.061 9.53799,-22.45431 9.53799,-23.0962 0,-1.25516 -15.85209,-37.93083 -18.98519,-43.92449 -1.04026,-1.99 -9.97571,-13.46433 -19.85656,-25.49848 L 65.193077,313.41498 64.00872,303.79526 C 63.35732,298.50441 58.46398,259.30088 53.13461,216.6763 L 43.444859,139.17706 37.74865,138.46555 C 21.30339,136.41131 11.4813,121.78542 16.46687,106.77527 18.585801,100.39577 21.825,96.45096 27.8554,92.90592 31.799,90.587618 33.63196,90.17553 40,90.17553 c 6.36804,1e-6 8.201,0.41209 12.1446,2.73039 6.0304,3.545038 9.2696,7.48985 11.38853,13.86935 3.618309,10.89373 -1.09307,23.07758 -11.0865,28.67019 -1.155869,0.64685 6.24168,16.63227 36.68375,79.27016 20.97237,43.15295 38.19226,78.54202 38.2664,78.64238 0.20523,0.27776 10.70156,-187.79951 10.64905,-190.81375 -0.0393,-2.25333 -0.66355,-2.78683 -4.34632,-3.71416 C 127.7289,97.326667 121.65079,92.63951 118.31686,86.96769 115.89707,82.85104 115.5,81.10726 115.5,74.59711 c 0,-6.686837 0.35637,-8.15743 3.02914,-12.5 10.04947,-16.327831 32.89225,-16.32783 42.94172,0 2.67993,4.354209 3.02914,5.80428 3.02914,12.57842 0,6.764181 -0.35188,8.23061 -3.01828,12.57842 -1.80143,2.937378 -5.05031,6.26321 -8.05848,8.24933 l -5.04018,3.327752 31.55494,91.422248 c 17.35523,50.28224 31.78154,91.42197 32.05848,91.42163 0.34706,-4.1e-4 33.13481,-186.55635 35.38044,-201.30786 0.0677,-0.44466 -1.56533,-1.40445 -3.62895,-2.13286 -5.51649,-1.947192 -10.33872,-6.0061 -13.47567,-11.34255 -2.37097,-4.03341 -2.7723,-5.81316 -2.7723,-12.29453 0,-6.686841 0.35637,-8.15743 3.02914,-12.5 10.04947,-16.327831 32.89225,-16.32783 42.94172,0 2.67277,4.342569 3.02914,5.81316 3.02914,12.5 0,6.481369 -0.40132,8.26112 -2.7723,12.29453 -3.13694,5.33645 -7.95918,9.39536 -13.47567,11.34255 -2.06363,0.728408 -3.69665,1.6882 -3.62895,2.13286 2.24563,14.75151 35.03338,201.30744 35.38044,201.30786 0.27695,3.5e-4 14.70325,-41.13939 32.05847,-91.42163 l 31.55495,-91.422248 -5.04019,-3.327751 C 347.56859,93.51716 344.31971,90.19133 342.51828,87.25395 339.85188,82.906138 339.5,81.43971 339.5,74.67553 c 0,-6.774139 0.34921,-8.22421 3.02914,-12.57842 10.04947,-16.327831 32.89225,-16.32783 42.94172,0 2.67277,4.342569 3.02914,5.81316 3.02914,12.5 0,6.510153 -0.39707,8.25393 -2.81686,12.37058 -3.33393,5.67182 -9.41204,10.35898 -15.38265,11.8624 -3.68276,0.927327 -4.30707,1.46083 -4.34632,3.71416 -0.0525,3.01424 10.44382,191.09151 10.64905,190.81375 0.0741,-0.10036 17.29403,-35.48943 38.2664,-78.64238 30.44206,-62.63789 37.83962,-78.6233 36.68375,-79.27016 -9.99344,-5.59262 -14.70481,-17.77646 -11.0865,-28.67019 2.11894,-6.3795 5.35813,-10.32431 11.38853,-13.86935 3.94359,-2.318302 5.77656,-2.73039 12.1446,-2.73039 6.36804,1e-6 8.201,0.41209 12.1446,2.73039 6.03038,3.545038 9.26957,7.48985 11.38857,13.86935 4.9855,15.01015 -4.8366,29.63604 -21.28182,31.69027 l -5.6962,0.71152 -9.68976,77.49924 c -5.32937,42.62458 -10.22271,81.82811 -10.87411,87.11896 l -1.18436,9.61972 -17.96518,21.88028 c -9.88084,12.03415 -18.81629,23.50847 -19.85655,25.49848 C 397.85208,366.78741 382,403.46307 382,404.71823 c 0,0.64189 4.2921,11.03519 9.53799,23.0962 5.2459,12.06103 9.27612,22.35286 8.95604,22.87076 -2.2943,3.71228 -26.34098,13.7871 -41.79764,17.51196 -22.39482,5.39687 -26.87355,5.66261 -99.69639,5.91559 -37.125,0.12898 -72.26227,-0.0994 -78.08283,-0.50759 l 1e-5,1e-5 z"
             transform="translate(520.30873,156.5379)"
             id="path2611"
             style="fill:#000000" />
          <path
             inkscape:connector-curvature="0"
             d="m 130.5036,361.67419 c 17.2924,-6.48034 34.43631,-11.38498 52.4964,-15.01853 26.36559,-5.30455 37.84015,-6.36264 69,-6.36264 31.15985,-1e-5 42.63441,1.0581 69,6.36264 18.15046,3.65172 35.2157,8.54258 52.80033,15.13242 14.96145,5.60679 17.33155,5.68829 20.13572,0.69232 2.3123,-4.11965 0.55178,-7.81447 -5.04803,-10.59445 C 380.60569,347.77427 356.43256,339.828 339.79396,335.7476 306.8085,327.65834 286.3299,325.19742 252,325.19742 c -15.57227,0 -30.82986,0.53271 -37,1.29183 -34.4439,4.23766 -64.52416,11.49601 -92.74338,22.37889 C 111.77743,352.9095 109,355.12516 109,359.44349 c 0,2.66632 4.12469,7.23204 6.53343,7.23204 0.89339,-10e-6 7.62997,-2.25061 14.97017,-5.00135 l 0,1e-5 z"
             transform="translate(520.30873,156.5379)"
             id="path2388"
             style="fill:#ffffff" />
          <path
             inkscape:connector-curvature="0"
             d="M 154.00249,404.8801 C 173.95274,396.29104 194.6101,390.42685 217,386.99644 c 16.03452,-2.45668 53.86949,-2.46512 70,-0.0156 23.33802,3.54404 45.84132,10.18079 68.4091,20.17547 10.27359,4.5499 12.34527,5.15221 14.79008,4.29994 5.50587,-1.91935 6.49672,-8.17593 1.90649,-12.03835 -6.91908,-5.82202 -40.52032,-18.31852 -62.10567,-23.09748 -22.62395,-5.00891 -32.88821,-6.08593 -58,-6.08593 -25.11179,-10e-6 -35.37605,1.07703 -58,6.08593 -21.58535,4.77895 -55.1866,17.27547 -62.10567,23.09748 -4.52056,3.80379 -3.78874,9.55764 1.49837,11.7807 2.5506,1.07244 3.621,1.06668 6.10034,-0.0329 1.65383,-0.73345 8.18308,-3.56198 14.50944,-6.28563 l 1e-5,0 z"
             transform="translate(520.30873,156.5379)"
             id="path2386"
             style="fill:#ffffff" />
          <path
             inkscape:connector-curvature="0"
             d="m 121.79966,456.28506 c 5.1927,-2.67389 34.80818,-12.37104 47.20034,-15.45507 14.11784,-3.5135 30.30278,-6.41133 46.5,-8.32559 14.35087,-1.69605 58.64913,-1.69606 73,0 31.85874,3.76522 61.0282,10.94242 88.71026,21.82734 l 8.71027,3.42497 4.08844,-2.08575 c 4.56861,-2.33074 5.49613,-3.84683 4.58189,-7.48943 C 393.7759,444.93445 388.4142,442.25954 370,435.9134 c -78.19725,-26.94937 -157.80275,-26.94938 -236,0 -18.4142,6.34615 -23.77589,9.02104 -24.59086,12.26813 -0.89998,3.58581 -0.002,5.13493 4.29037,7.40001 4.61014,2.43287 4.72271,2.44265 8.10015,0.70351 l 0,10e-6 z"
             transform="translate(520.30873,156.5379)"
             id="path2384"
             style="fill:#ffffff" />
        </g>
      </g>
    </g>
  </g>
</svg>
