<?xml version="1.0" encoding="UTF-8" standalone="no"?>
<!-- Created with Inkscape (http://www.inkscape.org/) -->

<svg
   xmlns:dc="http://purl.org/dc/elements/1.1/"
   xmlns:cc="http://creativecommons.org/ns#"
   xmlns:rdf="http://www.w3.org/1999/02/22-rdf-syntax-ns#"
   xmlns:svg="http://www.w3.org/2000/svg"
   xmlns="http://www.w3.org/2000/svg"
   xmlns:sodipodi="http://sodipodi.sourceforge.net/DTD/sodipodi-0.dtd"
   xmlns:inkscape="http://www.inkscape.org/namespaces/inkscape"
   width="88.549904"
   height="88.115936"
   id="svg3048"
   version="1.1"
   inkscape:version="0.48.3.1 r9886"
   sodipodi:docname="new_queen.svg">
  <defs
     id="defs3050">
    <inkscape:path-effect
       effect="spiro"
       id="path-effect3026"
       is_visible="true" />
  </defs>
  <sodipodi:namedview
     id="base"
     pagecolor="#ffffff"
     bordercolor="#666666"
     borderopacity="1.0"
     inkscape:pageopacity="0.0"
     inkscape:pageshadow="2"
     inkscape:zoom="2.8"
     inkscape:cx="67.089723"
     inkscape:cy="31.945709"
     inkscape:document-units="px"
     inkscape:current-layer="layer1"
     showgrid="false"
     inkscape:window-width="957"
     inkscape:window-height="613"
     inkscape:window-x="1"
     inkscape:window-y="83"
     inkscape:window-maximized="0"
     fit-margin-top="0"
     fit-margin-left="0"
     fit-margin-right="0"
     fit-margin-bottom="0">
    <inkscape:grid
       type="xygrid"
       id="grid2984"
       empspacing="5"
       visible="true"
       enabled="true"
       snapvisiblegridlinesonly="true"
       originx="-146.73717px"
       originy="-719.48719px" />
  </sodipodi:namedview>
  <metadata
     id="metadata3053">
    <rdf:RDF>
      <cc:Work
         rdf:about="">
        <dc:format>image/svg+xml</dc:format>
        <dc:type
           rdf:resource="http://purl.org/dc/dcmitype/StillImage" />
        <dc:title />
      </cc:Work>
    </rdf:RDF>
  </metadata>
  <g
     inkscape:label="Livello 1"
     inkscape:groupmode="layer"
     id="layer1"
     transform="translate(-146.73717,-244.75906)">
    <g
       id="g3882"
       transform="matrix(1,0,0,0.99055923,0.71428572,5.9091259)">
      <path
         sodipodi:nodetypes="ccscccscscccssscsssccscscccsccscc"
         inkscape:connector-curvature="0"
         id="path3840"
         d="m 189.5,253.01853 -6.0625,39.78125 c -1.23158,-7.70497 -3.33535,-13.74266 -5.90625,-18.84375 -2.90522,-5.76446 -6.4387,-10.29065 -10.03125,-14.71875 -0.24168,0.15632 -0.45078,0.35541 -0.71875,0.46875 -0.0481,0.0204 -0.10735,0.0124 -0.15625,0.0312 1.98097,6.14393 2.69414,12.29852 4.25,18.15625 1.38871,5.22841 2.31786,11.17356 0.65625,17.78125 -0.50325,-3.08507 -2.37005,-6.16493 -4.84375,-9.25 -3.30487,-4.12167 -7.50059,-8.25414 -11.09375,-12.375 -0.328,0.24869 -0.61582,0.52501 -1,0.6875 -0.0474,0.0201 -0.1081,0.0126 -0.15625,0.0312 3.38819,8.96295 7.76778,18.62811 10.5625,27.59375 0.8713,2.79518 0,6.5877 0,10 0,5 0,5 5,5 l 20,0 20,0 c 5,0 5,0 5,-5 0,-3.0904 -0.80342,-7.42257 0,-10 2.95657,-9.48485 7.74673,-19.67306 11.125,-29.15625 -0.222,-0.11746 -0.42439,-0.25791 -0.625,-0.40625 -3.76073,4.53926 -8.54737,9.0852 -12.1875,13.625 -2.47369,3.08507 -4.3405,6.16493 -4.84375,9.25 -1.66161,-6.60769 -0.73246,-12.55284 0.65625,-17.78125 1.55545,-5.8562 2.24517,-12.01393 4.21875,-18.15625 -0.03,-0.012 -0.0641,-0.0187 -0.0937,-0.0312 -0.2815,-0.11907 -0.49764,-0.33363 -0.75,-0.5 -3.5944,4.43733 -7.11955,8.97269 -10.03125,14.75 -2.5709,5.10109 -4.67467,11.13878 -5.90625,18.84375 l -6.0625,-39.75 c -0.16251,0.0159 -0.30205,0.0937 -0.46875,0.0937 -0.18735,0 -0.34925,-0.10493 -0.53125,-0.125 z"
         style="fill:none;stroke:#000000;stroke-width:1.00475395px;stroke-linecap:butt;stroke-linejoin:miter;stroke-opacity:1" />
      <path
         transform="translate(16.522882,81.500431)"
         d="m 140,187.36218 c 0,2.76143 -2.23858,5 -5,5 -2.76142,0 -5,-2.23857 -5,-5 0,-2.76142 2.23858,-5 5,-5 2.76142,0 5,2.23858 5,5 z"
         sodipodi:ry="5"
         sodipodi:rx="5"
         sodipodi:cy="187.36218"
         sodipodi:cx="135"
         id="path3010-4"
         style="fill:none;stroke:#000000;stroke-width:1.00475407;stroke-linecap:round;stroke-linejoin:round;stroke-miterlimit:4;stroke-opacity:1;stroke-dasharray:none"
         sodipodi:type="arc" />
      <path
         transform="translate(28.789612,66.446517)"
         d="m 140,187.36218 c 0,2.76143 -2.23858,5 -5,5 -2.76142,0 -5,-2.23857 -5,-5 0,-2.76142 2.23858,-5 5,-5 2.76142,0 5,2.23858 5,5 z"
         sodipodi:ry="5"
         sodipodi:rx="5"
         sodipodi:cy="187.36218"
         sodipodi:cx="135"
         id="path3010-4-4"
         style="fill:none;stroke:#000000;stroke-width:1.00475407;stroke-linecap:round;stroke-linejoin:round;stroke-miterlimit:4;stroke-opacity:1;stroke-dasharray:none"
         sodipodi:type="arc" />
      <path
         transform="translate(54.913343,59.251357)"
         d="m 140,187.36218 c 0,2.76143 -2.23858,5 -5,5 -2.76142,0 -5,-2.23857 -5,-5 0,-2.76142 2.23858,-5 5,-5 2.76142,0 5,2.23858 5,5 z"
         sodipodi:ry="5"
         sodipodi:rx="5"
         sodipodi:cy="187.36218"
         sodipodi:cx="135"
         id="path3010-4-3"
         style="fill:none;stroke:#000000;stroke-width:1.00475407;stroke-linecap:round;stroke-linejoin:round;stroke-miterlimit:4;stroke-opacity:1;stroke-dasharray:none"
         sodipodi:type="arc" />
      <path
         transform="translate(81.089376,66.424853)"
         d="m 140,187.36218 c 0,2.76143 -2.23858,5 -5,5 -2.76142,0 -5,-2.23857 -5,-5 0,-2.76142 2.23858,-5 5,-5 2.76142,0 5,2.23858 5,5 z"
         sodipodi:ry="5"
         sodipodi:rx="5"
         sodipodi:cy="187.36218"
         sodipodi:cx="135"
         id="path3010-4-0"
         style="fill:none;stroke:#000000;stroke-width:1.00475407;stroke-linecap:round;stroke-linejoin:round;stroke-miterlimit:4;stroke-opacity:1;stroke-dasharray:none"
         sodipodi:type="arc" />
      <path
         transform="translate(94.072788,80.174853)"
         d="m 140,187.36218 c 0,2.76143 -2.23858,5 -5,5 -2.76142,0 -5,-2.23857 -5,-5 0,-2.76142 2.23858,-5 5,-5 2.76142,0 5,2.23858 5,5 z"
         sodipodi:ry="5"
         sodipodi:rx="5"
         sodipodi:cy="187.36218"
         sodipodi:cx="135"
         id="path3010-4-9"
         style="fill:none;stroke:#000000;stroke-width:1.00475407;stroke-linecap:round;stroke-linejoin:round;stroke-miterlimit:4;stroke-opacity:1;stroke-dasharray:none"
         sodipodi:type="arc" />
    </g>
    <rect
       style="fill:none;stroke:#000000;stroke-width:1;stroke-linecap:round;stroke-linejoin:round;stroke-miterlimit:4;stroke-opacity:1;stroke-dasharray:none"
       id="rect3880"
       width="50"
       height="10"
       x="165"
       y="322.36218"
       ry="2"
       rx="2" />
  </g>
</svg>
